<svg xmlns="http://www.w3.org/2000/svg" 
    viewBox="0 0 2000s 1000">>
<style type="text/css">
	.st0{fill:none;stroke:#ffffff;stroke-width:3.8326;stroke-miterlimit:10;}
	.st1{fill:#FFFFFF;stroke:#ffffff;stroke-width:3.8326;stroke-miterlimit:10;}
</style>
<g>
	<g>
		<line class="st0" x1="1128.3" y1="-17.7" x2="1183.8" y2="78.4"/>
		<line class="st0" x1="1182.2" y1="647.8" x2="1157.6" y2="690.4"/>
		<polyline class="st0" points="1183.8,78.4 1347.2,-15.9 1675.8,173.8 1675.8,553.3 1347.2,743 1182.2,647.8 		"/>
		<polyline class="st0" points="1183.8,78.4 1018.6,173.8 1018.6,553.3 1182.2,647.8 		"/>
	</g>
	<polygon class="st0" points="361.4,553.3 32.8,-15.9 -295.8,553.3 	"/>
	<polygon class="st0" points="1675.8,932.7 1018.6,-205.6 361.4,932.7 	"/>
	<polygon class="st0" points="1347.2,743 690,-395.3 32.8,743 	"/>
	<polygon class="st0" points="361.4,173.8 32.8,743 -295.8,173.8 	"/>
	<polygon class="st0" points="361.4,553.3 361.4,173.8 32.8,-15.9 -295.8,173.8 -295.8,553.3 32.8,743 	"/>
	<polygon class="st0" points="251.8,1248.9 251.8,1122.4 251.8,995.9 142.3,932.7 32.8,869.5 -76.7,932.7 -186.3,995.9 
		-186.3,1122.4 -186.3,1248.9 -76.7,1312.1 32.8,1375.4 142.3,1312.1 	"/>
	<g>
		<line class="st0" x1="32.8" y1="743" x2="32.8" y2="1501.8"/>
		<line class="st0" x1="-295.8" y1="932.7" x2="361.4" y2="1312.1"/>
		<line class="st0" x1="-295.8" y1="1312.1" x2="361.4" y2="932.7"/>
	</g>
	<g>
		<line class="st0" x1="142.3" y1="175.2" x2="-130.9" y2="648.5"/>
		<line class="st0" x1="-131.5" y1="80.3" x2="142.3" y2="554.6"/>
		<line class="st0" x1="-295.8" y1="364.9" x2="361.4" y2="364.9"/>
	</g>
	<line class="st0" x1="32.8" y1="-15.9" x2="32.8" y2="743"/>
	<line class="st0" x1="32.8" y1="-15.9" x2="32.8" y2="743"/>
	<polygon class="st0" points="1018.6,553.3 690,-15.9 361.4,553.3 	"/>
	<polygon class="st0" points="1018.6,173.8 690,743 361.4,173.8 	"/>
	<polygon class="st0" points="799.5,426.8 799.5,300.3 690,237.1 580.4,300.3 580.4,426.8 690,490 	"/>
	<polygon class="st0" points="909,490 909,363.5 909,237.1 799.5,173.8 690,110.6 580.4,173.8 470.9,237.1 470.9,363.5 470.9,490 
		580.4,553.3 690,616.5 799.5,553.3 	"/>
	<polygon class="st0" points="1018.6,553.3 1018.6,173.8 690,-15.9 361.4,173.8 361.4,553.3 690,743 	"/>
	<g>
		<line class="st0" x1="799.5" y1="175.2" x2="580.4" y2="554.6"/>
		<line class="st0" x1="580.4" y1="175.2" x2="799.5" y2="554.6"/>
		<line class="st0" x1="361.4" y1="364.9" x2="1018.6" y2="364.9"/>
	</g>
	<line class="st0" x1="690" y1="-15.9" x2="690" y2="743"/>
	<g>
		<polygon class="st0" points="1018.6,-585 690,-15.9 361.4,-585 		"/>
		<polygon class="st0" points="1018.6,-205.6 1018.6,-585 690,-774.7 361.4,-585 361.4,-205.6 690,-15.9 		"/>
		<line class="st0" x1="690" y1="-774.7" x2="690" y2="-15.9"/>
	</g>
	<polyline class="st0" points="-295.8,173.8 32.8,364.9 -295.8,553.3 	"/>
	<polyline class="st0" points="361.4,173.8 690,364.9 361.4,553.3 	"/>
	<polygon class="st0" points="361.4,1312.1 361.4,932.7 32.8,743 -295.8,932.7 -295.8,1312.1 32.8,1501.8 	"/>
	<circle class="st1" cx="364.8" cy="924.9" r="36.1"/>
</g>
</svg>
