<svg xmlns="http://www.w3.org/2000/svg" viewBox="0 0 272.6 216.23"><defs><style>.a{isolation:isolate;}.b{mix-blend-mode:multiply;}.c,.d{fill:none;}.c,.d,.e{stroke:#838d95;stroke-miterlimit:10;}.c{stroke-width:1.53px;}.d,.e{stroke-width:2.3px;}.e,.g{fill:#fff;}.f{fill:#838d95;}</style></defs><title>mesh6</title><g class="a"><g class="b"><line class="c" x1="136.3" x2="136.3" y2="216.23"/><line class="d" x1="124.34" y1="14.48" x2="232.46" y2="201.74"/><line class="d" x1="84.77" y1="5.45" x2="272.03" y2="113.57"/><line class="d" x1="148.26" y1="14.48" x2="40.15" y2="201.74"/><line class="d" x1="187.83" y1="5.45" x2="0.57" y2="113.57"/><line class="d" x1="136.3" y1="216.23" x2="136.3"/><line class="d" x1="148.26" y1="201.74" x2="40.15" y2="14.48"/><line class="d" x1="187.83" y1="210.78" x2="0.57" y2="102.66"/><line class="d" x1="124.34" y1="201.74" x2="232.46" y2="14.48"/><line class="d" x1="84.77" y1="210.78" x2="272.03" y2="102.66"/><circle class="e" cx="136.29" cy="181.02" r="7.22"/><circle class="f" cx="94.29" cy="108.19" r="6.56"/><path class="g" d="M94.29,102.78a5.41,5.41,0,1,1-5.41,5.41,5.41,5.41,0,0,1,5.41-5.41m0-2.3a7.71,7.71,0,1,0,7.71,7.71,7.72,7.72,0,0,0-7.71-7.71Z"/><circle class="f" cx="73.24" cy="71.72" r="6.56"/><path class="g" d="M73.25,66.31a5.41,5.41,0,1,1-5.41,5.41,5.41,5.41,0,0,1,5.41-5.41m0-2.3A7.71,7.71,0,1,0,81,71.72,7.72,7.72,0,0,0,73.25,64Z"/><circle class="f" cx="73.05" cy="144.57" r="6.56"/><path class="g" d="M73,139.16a5.41,5.41,0,1,1-5.41,5.41A5.41,5.41,0,0,1,73,139.16m0-2.3a7.71,7.71,0,1,0,7.71,7.71A7.72,7.72,0,0,0,73,136.86Z"/><circle class="e" cx="136.3" cy="35.2" r="7.22"/><circle class="e" cx="199.47" cy="144.56" r="7.22"/><circle class="e" cx="178.4" cy="108.08" r="7.22"/></g></g></svg>