<svg xmlns="http://www.w3.org/2000/svg" viewBox="0 0 272.6 216.23"><defs><style>.a{isolation:isolate;}.b{fill:#d2fbf7;}.c{mix-blend-mode:multiply;}.d,.e{fill:none;}.d,.e,.f{stroke:#838d95;stroke-miterlimit:10;}.d{stroke-width:1.53px;}.e,.f{stroke-width:2.3px;}.f,.h{fill:#fff;}.g{fill:#838d95;}</style></defs><title>mesh7</title><g class="a"><polygon class="b" points="22.02 108.11 136.3 42.13 250.58 108.11 136.3 174.09 22.02 108.11"/><g class="c"><line class="d" x1="136.3" x2="136.3" y2="216.23"/><line class="e" x1="124.34" y1="14.48" x2="232.46" y2="201.74"/><line class="e" x1="84.77" y1="5.45" x2="272.03" y2="113.57"/><line class="e" x1="148.26" y1="14.48" x2="40.15" y2="201.74"/><line class="e" x1="187.83" y1="5.45" x2="0.57" y2="113.57"/><line class="e" x1="136.3" y1="216.23" x2="136.3"/><line class="e" x1="148.26" y1="201.74" x2="40.15" y2="14.48"/><line class="e" x1="187.83" y1="210.78" x2="0.57" y2="102.66"/><line class="e" x1="124.34" y1="201.74" x2="232.46" y2="14.48"/><line class="e" x1="84.77" y1="210.78" x2="272.03" y2="102.66"/><circle class="f" cx="136.29" cy="181.02" r="7.22"/><circle class="g" cx="94.29" cy="108.19" r="6.56"/><path class="h" d="M94.29,102.78a5.41,5.41,0,1,1-5.41,5.41,5.41,5.41,0,0,1,5.41-5.41m0-2.3a7.71,7.71,0,1,0,7.71,7.71,7.72,7.72,0,0,0-7.71-7.71Z"/><circle class="g" cx="73.24" cy="71.72" r="6.56"/><path class="h" d="M73.25,66.31a5.41,5.41,0,1,1-5.41,5.41,5.41,5.41,0,0,1,5.41-5.41m0-2.3A7.71,7.71,0,1,0,81,71.72,7.72,7.72,0,0,0,73.25,64Z"/><circle class="g" cx="73.05" cy="144.57" r="6.56"/><path class="h" d="M73,139.16a5.41,5.41,0,1,1-5.41,5.41A5.41,5.41,0,0,1,73,139.16m0-2.3a7.71,7.71,0,1,0,7.71,7.71A7.72,7.72,0,0,0,73,136.86Z"/><circle class="f" cx="136.3" cy="35.2" r="7.22"/><circle class="f" cx="199.47" cy="144.56" r="7.22"/><circle class="f" cx="178.4" cy="108.08" r="7.22"/></g></g></svg>