<svg xmlns="http://www.w3.org/2000/svg" viewBox="0 0 264.24 198.68"><defs><style>.a,.b{fill:none;stroke:#e7ff00;stroke-width:2px;}.a{stroke-linecap:round;stroke-linejoin:round;}.b{stroke-miterlimit:10;}</style></defs><title>mesh4</title><line class="a" x1="155.83" y1="1" x2="155.83" y2="1"/><line class="b" x1="225.42" y1="1" x2="225.42" y2="1"/><line class="a" x1="155.83" y1="1" x2="155.83" y2="1"/><line class="a" x1="111.1" y1="1" x2="111.1" y2="1"/><line class="a" x1="1" y1="71.17" x2="1" y2="71.17"/><line class="a" x1="263.24" y1="12.96" x2="263.24" y2="12.96"/><line class="a" x1="263.24" y1="39.73" x2="263.24" y2="39.73"/><line class="b" x1="225.42" y1="1" x2="225.42" y2="1"/><line class="a" x1="111.1" y1="1" x2="111.1" y2="1"/><line class="b" x1="41.51" y1="1" x2="41.51" y2="1"/><line class="b" x1="1" y1="8.29" x2="1" y2="8.29"/><line class="b" x1="41.51" y1="1" x2="41.51" y2="1"/><line class="b" x1="156.59" y1="197.68" x2="156.59" y2="197.68"/><line class="a" x1="1" y1="138.73" x2="1" y2="138.73"/><line class="a" x1="133.47" y1="39.73" x2="133.47" y2="39.73"/><line class="a" x1="133.47" y1="39.73" x2="133.47" y2="39.73"/><line class="a" x1="133.47" y1="39.73" x2="133.47" y2="39.73"/><line class="a" x1="133.47" y1="39.73" x2="133.47" y2="39.73"/><line class="a" x1="133.47" y1="39.73" x2="111.1" y2="1"/><line class="a" x1="133.47" y1="39.73" x2="133.47" y2="39.73"/><line class="a" x1="76.31" y1="6.73" x2="76.31" y2="39.73"/><line class="a" x1="76.31" y1="6.73" x2="76.31" y2="6.73"/><line class="a" x1="76.31" y1="39.73" x2="76.31" y2="39.73"/><line class="a" x1="76.31" y1="1" x2="76.31" y2="6.73"/><line class="a" x1="19.15" y1="39.73" x2="19.15" y2="39.73"/><line class="a" x1="19.15" y1="39.73" x2="19.15" y2="39.73"/><line class="a" x1="19.15" y1="39.73" x2="19.15" y2="39.73"/><line class="a" x1="41.51" y1="1" x2="19.15" y2="39.73"/><line class="a" x1="19.15" y1="39.73" x2="19.15" y2="39.73"/><line class="a" x1="19.15" y1="39.73" x2="19.15" y2="39.73"/><line class="a" x1="19.15" y1="39.73" x2="19.15" y2="39.73"/><line class="a" x1="19.15" y1="39.73" x2="19.15" y2="39.73"/><line class="a" x1="19.15" y1="39.73" x2="19.15" y2="39.73"/><line class="a" x1="19.15" y1="39.73" x2="19.15" y2="39.73"/><line class="a" x1="133.47" y1="39.73" x2="155.83" y2="1"/><line class="a" x1="19.15" y1="39.73" x2="19.15" y2="39.73"/><line class="a" x1="19.15" y1="39.73" x2="19.15" y2="39.73"/><line class="a" x1="19.15" y1="39.73" x2="19.15" y2="39.73"/><polyline class="a" points="19.15 39.73 19.15 39.73 19.15 39.73"/><line class="a" x1="133.47" y1="39.73" x2="133.47" y2="39.73"/><line class="a" x1="19.15" y1="39.73" x2="76.31" y2="39.73"/><line class="a" x1="1" y1="8.29" x2="19.15" y2="39.73"/><line class="a" x1="19.15" y1="39.73" x2="19.15" y2="39.73"/><line class="a" x1="133.47" y1="39.73" x2="133.47" y2="39.73"/><line class="a" x1="133.47" y1="39.73" x2="133.47" y2="39.73"/><line class="a" x1="133.47" y1="39.73" x2="133.47" y2="39.73"/><line class="a" x1="133.47" y1="39.73" x2="133.47" y2="39.73"/><line class="a" x1="133.47" y1="39.73" x2="133.47" y2="39.73"/><line class="a" x1="133.47" y1="39.73" x2="133.47" y2="39.73"/><line class="a" x1="133.47" y1="39.73" x2="133.47" y2="39.73"/><line class="a" x1="133.47" y1="39.73" x2="133.47" y2="39.73"/><line class="a" x1="19.15" y1="39.73" x2="19.15" y2="39.73"/><line class="a" x1="19.15" y1="39.73" x2="19.15" y2="39.73"/><line class="a" x1="19.15" y1="39.73" x2="19.15" y2="39.73"/><line class="a" x1="76.31" y1="39.73" x2="133.47" y2="39.73"/><line class="a" x1="190.62" y1="138.73" x2="76.31" y2="138.73"/><line class="a" x1="76.31" y1="138.73" x2="76.31" y2="138.73"/><line class="a" x1="76.31" y1="138.73" x2="76.31" y2="138.73"/><line class="a" x1="19.15" y1="138.73" x2="76.31" y2="138.73"/><line class="a" x1="1" y1="138.73" x2="19.15" y2="138.73"/><line class="a" x1="76.31" y1="138.73" x2="76.31" y2="138.73"/><line class="a" x1="76.31" y1="138.73" x2="76.31" y2="138.73"/><line class="a" x1="76.31" y1="138.73" x2="76.31" y2="138.73"/><line class="a" x1="76.31" y1="138.73" x2="76.31" y2="138.73"/><line class="a" x1="76.31" y1="138.73" x2="76.31" y2="138.73"/><line class="a" x1="190.62" y1="138.73" x2="190.62" y2="138.73"/><line class="a" x1="190.62" y1="138.73" x2="190.62" y2="138.73"/><line class="a" x1="76.31" y1="138.73" x2="76.31" y2="138.73"/><line class="a" x1="76.31" y1="138.73" x2="76.31" y2="138.73"/><line class="a" x1="76.31" y1="138.73" x2="76.31" y2="138.73"/><line class="a" x1="76.31" y1="138.73" x2="76.31" y2="138.73"/><line class="a" x1="110.34" y1="197.68" x2="76.31" y2="138.73"/><line class="a" x1="76.31" y1="138.73" x2="76.31" y2="138.73"/><line class="a" x1="76.31" y1="138.73" x2="76.31" y2="138.73"/><line class="a" x1="19.15" y1="39.73" x2="19.15" y2="39.73"/><line class="a" x1="19.15" y1="39.73" x2="19.15" y2="39.73"/><line class="a" x1="19.15" y1="39.73" x2="19.15" y2="39.73"/><line class="a" x1="76.31" y1="138.73" x2="76.31" y2="138.73"/><line class="a" x1="76.31" y1="138.73" x2="19.15" y2="39.73"/><line class="a" x1="76.31" y1="138.73" x2="76.31" y2="138.73"/><line class="a" x1="19.15" y1="39.73" x2="19.15" y2="39.73"/><line class="a" x1="76.31" y1="138.73" x2="76.31" y2="138.73"/><line class="a" x1="76.31" y1="72.73" x2="76.31" y2="138.73"/><line class="a" x1="76.31" y1="39.73" x2="76.31" y2="39.73"/><line class="a" x1="76.31" y1="39.73" x2="76.31" y2="72.73"/><line class="a" x1="76.31" y1="138.73" x2="76.31" y2="138.73"/><line class="a" x1="76.31" y1="72.73" x2="76.31" y2="72.73"/><line class="a" x1="76.31" y1="138.73" x2="76.31" y2="138.73"/><line class="a" x1="76.31" y1="197.68" x2="76.31" y2="138.73"/><line class="a" x1="76.31" y1="138.73" x2="76.31" y2="138.73"/><line class="a" x1="76.31" y1="138.73" x2="76.31" y2="138.73"/><line class="a" x1="76.31" y1="138.73" x2="76.31" y2="138.73"/><line class="a" x1="76.31" y1="138.73" x2="76.31" y2="138.73"/><line class="a" x1="76.31" y1="39.73" x2="76.31" y2="39.73"/><line class="a" x1="76.31" y1="39.73" x2="76.31" y2="39.73"/><line class="a" x1="76.31" y1="39.73" x2="76.31" y2="39.73"/><line class="a" x1="133.47" y1="105.73" x2="162.04" y2="89.23"/><line class="a" x1="1" y1="182.21" x2="76.31" y2="138.73"/><line class="a" x1="162.05" y1="89.23" x2="162.04" y2="89.23"/><line class="a" x1="76.31" y1="138.73" x2="76.31" y2="138.73"/><line class="a" x1="76.31" y1="138.73" x2="76.31" y2="138.73"/><line class="a" x1="76.31" y1="138.73" x2="76.31" y2="138.73"/><line class="a" x1="162.05" y1="89.23" x2="162.05" y2="89.23"/><line class="a" x1="162.05" y1="89.23" x2="162.05" y2="89.23"/><line class="a" x1="76.31" y1="138.73" x2="76.31" y2="138.73"/><line class="a" x1="133.47" y1="105.73" x2="76.31" y2="138.73"/><line class="a" x1="76.31" y1="138.73" x2="76.31" y2="138.73"/><line class="a" x1="76.31" y1="138.73" x2="76.31" y2="138.73"/><line class="a" x1="76.31" y1="138.73" x2="76.31" y2="138.73"/><line class="a" x1="76.31" y1="138.73" x2="76.31" y2="138.73"/><line class="a" x1="76.31" y1="138.73" x2="76.31" y2="138.73"/><line class="a" x1="76.31" y1="138.73" x2="76.31" y2="138.73"/><line class="a" x1="76.31" y1="138.73" x2="76.31" y2="138.73"/><line class="a" x1="1" y1="95.25" x2="19.15" y2="105.73"/><line class="a" x1="76.31" y1="138.73" x2="76.31" y2="138.73"/><line class="a" x1="76.31" y1="138.73" x2="76.31" y2="138.73"/><line class="a" x1="76.31" y1="138.73" x2="76.31" y2="138.73"/><line class="a" x1="162.05" y1="188.23" x2="162.05" y2="188.23"/><line class="a" x1="76.31" y1="138.73" x2="76.31" y2="138.73"/><line class="a" x1="19.15" y1="105.73" x2="76.31" y2="138.73"/><line class="a" x1="162.05" y1="188.23" x2="76.31" y2="138.73"/><line class="a" x1="162.05" y1="188.23" x2="162.05" y2="188.23"/><line class="a" x1="76.31" y1="138.73" x2="104.89" y2="89.23"/><line class="a" x1="76.31" y1="138.73" x2="76.31" y2="138.73"/><line class="a" x1="133.47" y1="39.73" x2="133.47" y2="39.73"/><line class="a" x1="133.47" y1="39.73" x2="133.47" y2="39.73"/><line class="a" x1="133.47" y1="39.73" x2="104.89" y2="89.23"/><line class="a" x1="42.28" y1="197.68" x2="76.31" y2="138.73"/><line class="a" x1="76.31" y1="138.73" x2="76.31" y2="138.73"/><line class="a" x1="76.31" y1="138.73" x2="76.31" y2="138.73"/><line class="a" x1="76.31" y1="138.73" x2="76.31" y2="138.73"/><line class="a" x1="76.31" y1="138.73" x2="76.31" y2="138.73"/><line class="a" x1="133.47" y1="39.73" x2="133.47" y2="39.73"/><line class="a" x1="76.31" y1="138.73" x2="76.31" y2="138.73"/><line class="a" x1="133.47" y1="39.73" x2="133.47" y2="39.73"/><line class="a" x1="133.47" y1="39.73" x2="133.47" y2="39.73"/><line class="a" x1="19.15" y1="39.73" x2="19.15" y2="39.73"/><line class="a" x1="19.15" y1="39.73" x2="76.31" y2="39.73"/><line class="a" x1="19.15" y1="39.73" x2="19.15" y2="39.73"/><polyline class="a" points="19.15 39.73 19.15 39.73 19.15 39.73"/><line class="a" x1="156.59" y1="197.68" x2="162.05" y2="188.23"/><line class="a" x1="19.15" y1="39.73" x2="19.15" y2="39.73"/><line class="a" x1="1" y1="71.17" x2="19.15" y2="39.73"/><line class="a" x1="133.47" y1="39.73" x2="133.47" y2="39.73"/><line class="a" x1="19.15" y1="39.73" x2="19.15" y2="39.73"/><line class="a" x1="190.62" y1="138.73" x2="190.62" y2="138.73"/><line class="a" x1="133.47" y1="39.73" x2="133.47" y2="39.73"/><line class="a" x1="162.05" y1="188.23" x2="190.62" y2="138.73"/><line class="a" x1="76.31" y1="39.73" x2="133.47" y2="39.73"/><line class="a" x1="190.62" y1="138.73" x2="190.62" y2="138.73"/><line class="a" x1="190.62" y1="138.73" x2="190.62" y2="138.73"/><line class="a" x1="19.15" y1="39.73" x2="19.15" y2="39.73"/><line class="a" x1="19.15" y1="39.73" x2="19.15" y2="39.73"/><line class="a" x1="19.15" y1="39.73" x2="76.31" y2="39.73"/><line class="a" x1="19.15" y1="39.73" x2="19.15" y2="39.73"/><line class="a" x1="133.47" y1="39.73" x2="133.47" y2="39.73"/><line class="a" x1="1" y1="39.73" x2="19.15" y2="39.73"/><line class="a" x1="19.15" y1="39.73" x2="19.15" y2="39.73"/><line class="a" x1="133.47" y1="39.73" x2="133.47" y2="39.73"/><line class="a" x1="19.15" y1="39.73" x2="19.15" y2="39.73"/><line class="a" x1="19.15" y1="39.73" x2="19.15" y2="39.73"/><line class="a" x1="19.15" y1="39.73" x2="19.15" y2="39.73"/><line class="a" x1="19.15" y1="39.73" x2="19.15" y2="39.73"/><line class="a" x1="76.31" y1="39.73" x2="133.47" y2="39.73"/><line class="a" x1="19.15" y1="39.73" x2="19.15" y2="39.73"/><line class="a" x1="19.15" y1="39.73" x2="19.15" y2="39.73"/><line class="a" x1="19.15" y1="39.73" x2="19.15" y2="39.73"/><line class="a" x1="19.15" y1="39.73" x2="19.15" y2="39.73"/><line class="a" x1="19.15" y1="39.73" x2="19.15" y2="39.73"/><line class="a" x1="19.15" y1="39.73" x2="19.15" y2="39.73"/><line class="a" x1="19.15" y1="39.73" x2="19.15" y2="39.73"/><line class="a" x1="19.15" y1="39.73" x2="76.31" y2="138.73"/><line class="a" x1="19.15" y1="39.73" x2="19.15" y2="39.73"/><line class="a" x1="19.15" y1="39.73" x2="19.15" y2="39.73"/><line class="a" x1="19.15" y1="39.73" x2="1" y2="8.29"/><line class="a" x1="19.15" y1="138.73" x2="19.15" y2="138.73"/><line class="a" x1="19.15" y1="39.73" x2="19.15" y2="39.73"/><line class="a" x1="19.15" y1="39.73" x2="19.15" y2="39.73"/><line class="a" x1="19.15" y1="39.73" x2="19.15" y2="39.73"/><line class="a" x1="19.15" y1="39.73" x2="19.15" y2="39.73"/><line class="a" x1="19.15" y1="1" x2="19.15" y2="39.73"/><line class="a" x1="19.15" y1="39.73" x2="19.15" y2="39.73"/><line class="a" x1="19.15" y1="39.73" x2="19.15" y2="39.73"/><line class="a" x1="19.15" y1="39.73" x2="19.15" y2="39.73"/><line class="a" x1="19.15" y1="39.73" x2="19.15" y2="39.73"/><line class="a" x1="19.15" y1="39.73" x2="19.15" y2="39.73"/><line class="a" x1="19.15" y1="39.73" x2="19.15" y2="39.73"/><line class="a" x1="1" y1="50.21" x2="19.15" y2="39.73"/><line class="a" x1="19.15" y1="39.73" x2="19.15" y2="39.73"/><line class="a" x1="76.31" y1="6.73" x2="76.31" y2="6.73"/><line class="a" x1="76.31" y1="6.73" x2="19.15" y2="39.73"/><line class="a" x1="19.15" y1="39.73" x2="19.15" y2="39.73"/><line class="a" x1="19.15" y1="39.73" x2="19.15" y2="39.73"/><line class="a" x1="86.24" y1="1" x2="76.31" y2="6.73"/><line class="a" x1="19.15" y1="39.73" x2="19.15" y2="39.73"/><line class="a" x1="19.15" y1="39.73" x2="19.15" y2="39.73"/><line class="a" x1="19.15" y1="39.73" x2="19.15" y2="39.73"/><line class="a" x1="19.15" y1="39.73" x2="19.15" y2="39.73"/><line class="a" x1="19.15" y1="39.73" x2="19.15" y2="39.73"/><line class="a" x1="76.31" y1="72.73" x2="76.31" y2="72.73"/><line class="a" x1="19.15" y1="39.73" x2="19.15" y2="39.73"/><line class="a" x1="104.89" y1="89.23" x2="104.89" y2="89.23"/><line class="a" x1="104.89" y1="89.23" x2="104.89" y2="89.23"/><line class="a" x1="19.15" y1="39.73" x2="19.15" y2="39.73"/><line class="a" x1="19.15" y1="39.73" x2="19.15" y2="39.73"/><line class="a" x1="19.15" y1="39.73" x2="19.15" y2="39.73"/><line class="a" x1="104.89" y1="89.23" x2="76.31" y2="72.73"/><line class="a" x1="104.89" y1="89.23" x2="104.89" y2="89.23"/><line class="a" x1="19.15" y1="39.73" x2="19.15" y2="39.73"/><line class="a" x1="19.15" y1="39.73" x2="19.15" y2="39.73"/><line class="a" x1="19.15" y1="39.73" x2="19.15" y2="39.73"/><line class="a" x1="104.89" y1="89.23" x2="104.89" y2="89.23"/><line class="a" x1="1" y1="29.25" x2="19.15" y2="39.73"/><line class="a" x1="19.15" y1="39.73" x2="19.15" y2="39.73"/><line class="a" x1="19.15" y1="39.73" x2="19.15" y2="39.73"/><line class="a" x1="19.15" y1="39.73" x2="76.31" y2="72.73"/><line class="a" x1="19.15" y1="39.73" x2="19.15" y2="39.73"/><line class="a" x1="19.15" y1="39.73" x2="19.15" y2="39.73"/><line class="a" x1="19.15" y1="39.73" x2="1" y2="71.17"/><line class="a" x1="19.15" y1="39.73" x2="19.15" y2="39.73"/><line class="a" x1="19.15" y1="39.73" x2="19.15" y2="39.73"/><line class="a" x1="41.51" y1="1" x2="19.15" y2="39.73"/><line class="a" x1="19.15" y1="39.73" x2="19.15" y2="39.73"/><line class="a" x1="19.15" y1="39.73" x2="19.15" y2="39.73"/><line class="a" x1="19.15" y1="39.73" x2="19.15" y2="39.73"/><line class="a" x1="76.31" y1="138.73" x2="76.31" y2="138.73"/><line class="a" x1="133.47" y1="39.73" x2="133.47" y2="39.73"/><line class="a" x1="76.31" y1="138.73" x2="76.31" y2="138.73"/><line class="a" x1="133.47" y1="39.73" x2="111.1" y2="1"/><line class="a" x1="133.47" y1="39.73" x2="133.47" y2="39.73"/><line class="a" x1="76.31" y1="138.73" x2="76.31" y2="138.73"/><line class="a" x1="133.47" y1="39.73" x2="133.47" y2="39.73"/><line class="a" x1="133.47" y1="39.73" x2="133.47" y2="39.73"/><line class="a" x1="76.31" y1="138.73" x2="76.31" y2="138.73"/><line class="a" x1="104.89" y1="89.23" x2="133.47" y2="39.73"/><line class="a" x1="91.62" y1="112.21" x2="104.89" y2="89.23"/><line class="a" x1="133.47" y1="39.73" x2="133.47" y2="39.73"/><polyline class="a" points="76.31 138.73 76.31 138.73 76.31 138.73"/><line class="a" x1="133.47" y1="39.73" x2="133.47" y2="39.73"/><line class="a" x1="133.47" y1="39.73" x2="133.47" y2="39.73"/><line class="a" x1="76.31" y1="138.73" x2="91.62" y2="112.21"/><line class="a" x1="76.31" y1="138.73" x2="76.31" y2="138.73"/><line class="a" x1="76.31" y1="138.73" x2="76.31" y2="138.73"/><line class="a" x1="76.31" y1="138.73" x2="76.31" y2="138.73"/><line class="a" x1="76.31" y1="138.73" x2="1" y2="138.73"/><line class="a" x1="247.78" y1="39.73" x2="247.78" y2="39.73"/><line class="a" x1="133.47" y1="39.73" x2="133.47" y2="39.73"/><line class="a" x1="19.15" y1="39.73" x2="19.15" y2="39.73"/><line class="a" x1="133.47" y1="39.73" x2="76.31" y2="39.73"/><line class="a" x1="133.47" y1="39.73" x2="133.47" y2="39.73"/><line class="a" x1="133.47" y1="39.73" x2="133.47" y2="39.73"/><line class="a" x1="19.15" y1="39.73" x2="19.15" y2="39.73"/><line class="a" x1="247.78" y1="39.73" x2="247.78" y2="39.73"/><line class="a" x1="133.47" y1="39.73" x2="133.47" y2="39.73"/><line class="a" x1="133.47" y1="39.73" x2="133.47" y2="39.73"/><line class="a" x1="133.47" y1="39.73" x2="133.47" y2="39.73"/><line class="a" x1="247.78" y1="39.73" x2="247.78" y2="39.73"/><line class="a" x1="247.78" y1="39.73" x2="133.47" y2="39.73"/><line class="a" x1="247.78" y1="39.73" x2="247.78" y2="39.73"/><line class="a" x1="19.15" y1="39.73" x2="76.31" y2="39.73"/><line class="a" x1="133.47" y1="39.73" x2="133.47" y2="39.73"/><line class="a" x1="133.47" y1="39.73" x2="133.47" y2="39.73"/><line class="a" x1="133.47" y1="39.73" x2="133.47" y2="39.73"/><line class="a" x1="133.47" y1="39.73" x2="133.47" y2="39.73"/><line class="a" x1="162.05" y1="89.23" x2="190.62" y2="138.73"/><line class="a" x1="162.05" y1="89.23" x2="162.05" y2="89.23"/><line class="a" x1="162.05" y1="89.23" x2="133.47" y2="39.73"/><line class="a" x1="133.47" y1="39.73" x2="133.47" y2="39.73"/><line class="a" x1="133.47" y1="39.73" x2="133.47" y2="39.73"/><line class="a" x1="133.47" y1="39.73" x2="133.47" y2="39.73"/><line class="a" x1="133.47" y1="39.73" x2="133.47" y2="39.73"/><line class="a" x1="111.1" y1="1" x2="133.47" y2="39.73"/><line class="a" x1="133.47" y1="39.73" x2="133.47" y2="39.73"/><line class="a" x1="133.47" y1="1" x2="133.47" y2="39.73"/><line class="a" x1="133.47" y1="39.73" x2="133.47" y2="105.73"/><line class="a" x1="133.47" y1="39.73" x2="133.47" y2="39.73"/><line class="a" x1="133.47" y1="39.73" x2="133.47" y2="39.73"/><line class="a" x1="133.47" y1="138.73" x2="133.47" y2="105.73"/><line class="a" x1="133.47" y1="39.73" x2="133.47" y2="39.73"/><line class="a" x1="133.47" y1="39.73" x2="133.47" y2="39.73"/><line class="a" x1="133.47" y1="39.73" x2="133.47" y2="39.73"/><line class="a" x1="133.47" y1="39.73" x2="133.47" y2="39.73"/><line class="a" x1="133.47" y1="39.73" x2="133.47" y2="39.73"/><line class="a" x1="133.47" y1="39.73" x2="133.47" y2="39.73"/><line class="a" x1="133.47" y1="39.73" x2="133.47" y2="39.73"/><line class="a" x1="133.47" y1="39.73" x2="133.47" y2="39.73"/><line class="a" x1="133.47" y1="39.73" x2="133.47" y2="39.73"/><line class="a" x1="200.55" y1="1" x2="190.62" y2="6.73"/><line class="a" x1="133.47" y1="39.73" x2="133.47" y2="39.73"/><line class="a" x1="190.62" y1="6.73" x2="133.47" y2="39.73"/><line class="a" x1="47.73" y1="89.23" x2="76.31" y2="72.73"/><line class="a" x1="133.47" y1="39.73" x2="133.47" y2="39.73"/><line class="a" x1="133.47" y1="39.73" x2="133.47" y2="39.73"/><line class="a" x1="133.47" y1="39.73" x2="133.47" y2="39.73"/><line class="a" x1="133.47" y1="39.73" x2="133.47" y2="39.73"/><line class="a" x1="133.47" y1="39.73" x2="133.47" y2="39.73"/><line class="a" x1="76.31" y1="72.73" x2="76.31" y2="72.73"/><line class="a" x1="133.47" y1="39.73" x2="76.31" y2="72.73"/><line class="a" x1="133.47" y1="39.73" x2="133.47" y2="39.73"/><line class="a" x1="133.47" y1="39.73" x2="133.47" y2="39.73"/><line class="a" x1="133.47" y1="39.73" x2="133.47" y2="39.73"/><line class="a" x1="219.2" y1="89.23" x2="190.62" y2="72.73"/><line class="a" x1="133.47" y1="39.73" x2="133.47" y2="39.73"/><line class="a" x1="133.47" y1="39.73" x2="133.47" y2="39.73"/><line class="a" x1="219.2" y1="89.23" x2="219.2" y2="89.23"/><line class="a" x1="219.2" y1="89.23" x2="219.2" y2="89.23"/><line class="a" x1="133.47" y1="39.73" x2="133.47" y2="39.73"/><line class="a" x1="133.47" y1="39.73" x2="133.47" y2="39.73"/><line class="a" x1="66.38" y1="1" x2="76.31" y2="6.73"/><line class="a" x1="133.47" y1="39.73" x2="190.62" y2="72.73"/><line class="a" x1="76.31" y1="6.73" x2="76.31" y2="6.73"/><line class="a" x1="133.47" y1="39.73" x2="133.47" y2="39.73"/><line class="a" x1="133.47" y1="39.73" x2="133.47" y2="39.73"/><line class="a" x1="133.47" y1="39.73" x2="133.47" y2="39.73"/><line class="a" x1="133.47" y1="39.73" x2="133.47" y2="39.73"/><line class="a" x1="76.31" y1="6.73" x2="133.47" y2="39.73"/><line class="a" x1="219.2" y1="89.23" x2="219.2" y2="89.23"/><line class="a" x1="133.47" y1="39.73" x2="133.47" y2="39.73"/><line class="a" x1="133.47" y1="39.73" x2="133.47" y2="39.73"/><line class="a" x1="133.47" y1="39.73" x2="133.47" y2="39.73"/><line class="a" x1="133.47" y1="39.73" x2="133.47" y2="39.73"/><line class="a" x1="133.47" y1="39.73" x2="133.47" y2="39.73"/><line class="a" x1="133.47" y1="39.73" x2="133.47" y2="39.73"/><line class="a" x1="104.89" y1="89.23" x2="91.62" y2="112.21"/><line class="a" x1="133.47" y1="39.73" x2="133.47" y2="39.73"/><line class="a" x1="104.89" y1="89.23" x2="133.47" y2="39.73"/><line class="a" x1="133.47" y1="39.73" x2="133.47" y2="39.73"/><line class="a" x1="133.47" y1="39.73" x2="155.83" y2="1"/><line class="a" x1="91.62" y1="112.21" x2="76.31" y2="138.73"/><line class="a" x1="19.15" y1="39.73" x2="19.15" y2="39.73"/><line class="a" x1="225.42" y1="1" x2="247.78" y2="39.73"/><line class="a" x1="247.78" y1="39.73" x2="247.78" y2="39.73"/><line class="a" x1="19.15" y1="39.73" x2="19.15" y2="39.73"/><line class="a" x1="76.31" y1="138.73" x2="76.31" y2="138.73"/><line class="a" x1="190.62" y1="138.73" x2="76.31" y2="138.73"/><line class="a" x1="76.31" y1="138.73" x2="76.31" y2="138.73"/><line class="a" x1="76.31" y1="138.73" x2="76.31" y2="138.73"/><line class="a" x1="19.15" y1="39.73" x2="76.31" y2="138.73"/><line class="a" x1="76.31" y1="138.73" x2="76.31" y2="138.73"/><line class="a" x1="76.31" y1="138.73" x2="76.31" y2="138.73"/><line class="a" x1="76.31" y1="138.73" x2="76.31" y2="138.73"/><polyline class="a" points="76.31 138.73 76.31 138.73 76.31 138.73"/><line class="a" x1="190.62" y1="138.73" x2="190.62" y2="138.73"/><polyline class="a" points="190.62 138.73 190.62 138.73 219.2 89.23"/><polyline class="a" points="247.78 39.73 247.78 39.73 247.78 39.73"/><line class="a" x1="247.78" y1="39.73" x2="247.78" y2="39.73"/><line class="a" x1="219.2" y1="89.23" x2="247.78" y2="39.73"/><line class="a" x1="19.15" y1="39.73" x2="19.15" y2="39.73"/><line class="a" x1="41.51" y1="1" x2="19.15" y2="39.73"/><line class="a" x1="19.15" y1="39.73" x2="19.15" y2="39.73"/><line class="a" x1="19.15" y1="39.73" x2="19.15" y2="39.73"/><line class="a" x1="76.31" y1="138.73" x2="76.31" y2="138.73"/><polyline class="a" points="19.15 39.73 19.15 39.73 19.15 39.73"/><line class="a" x1="19.15" y1="39.73" x2="19.15" y2="39.73"/><line class="a" x1="247.78" y1="39.73" x2="247.78" y2="39.73"/><line class="a" x1="247.78" y1="39.73" x2="247.78" y2="39.73"/><line class="a" x1="247.78" y1="39.73" x2="247.78" y2="39.73"/><line class="a" x1="19.15" y1="39.73" x2="19.15" y2="39.73"/><line class="a" x1="19.15" y1="39.73" x2="19.15" y2="39.73"/><polyline class="a" points="247.78 39.73 247.78 39.73 247.78 39.73"/><line class="a" x1="247.78" y1="39.73" x2="247.78" y2="39.73"/><line class="a" x1="133.47" y1="39.73" x2="133.47" y2="39.73"/><line class="a" x1="247.78" y1="39.73" x2="247.78" y2="39.73"/><line class="a" x1="247.78" y1="39.73" x2="263.24" y2="39.73"/><line class="a" x1="133.47" y1="39.73" x2="133.47" y2="39.73"/><line class="a" x1="247.78" y1="39.73" x2="247.78" y2="39.73"/><line class="a" x1="247.78" y1="39.73" x2="247.78" y2="39.73"/><line class="a" x1="133.47" y1="39.73" x2="247.78" y2="39.73"/><line class="a" x1="133.47" y1="39.73" x2="133.47" y2="39.73"/><line class="a" x1="133.47" y1="39.73" x2="133.47" y2="39.73"/><line class="a" x1="247.78" y1="39.73" x2="247.78" y2="39.73"/><line class="a" x1="247.78" y1="39.73" x2="247.78" y2="39.73"/><line class="a" x1="247.78" y1="39.73" x2="247.78" y2="39.73"/><line class="a" x1="247.78" y1="39.73" x2="247.78" y2="39.73"/><line class="a" x1="247.78" y1="39.73" x2="247.78" y2="39.73"/><line class="a" x1="247.78" y1="39.73" x2="247.78" y2="39.73"/><line class="a" x1="225.42" y1="1" x2="247.78" y2="39.73"/><line class="a" x1="247.78" y1="39.73" x2="247.78" y2="39.73"/><line class="a" x1="247.78" y1="39.73" x2="247.78" y2="39.73"/><line class="a" x1="247.78" y1="39.73" x2="247.78" y2="39.73"/><line class="a" x1="263.24" y1="66.5" x2="247.78" y2="39.73"/><line class="a" x1="247.78" y1="39.73" x2="247.78" y2="39.73"/><line class="a" x1="247.78" y1="1" x2="247.78" y2="39.73"/><line class="a" x1="247.78" y1="39.73" x2="247.78" y2="39.73"/><line class="a" x1="247.78" y1="39.73" x2="247.78" y2="39.73"/><line class="a" x1="247.78" y1="39.73" x2="247.78" y2="39.73"/><line class="a" x1="247.78" y1="138.73" x2="247.78" y2="39.73"/><line class="a" x1="247.78" y1="39.73" x2="247.78" y2="39.73"/><line class="a" x1="247.78" y1="39.73" x2="247.78" y2="39.73"/><line class="a" x1="263.24" y1="30.81" x2="247.78" y2="39.73"/><line class="a" x1="247.78" y1="39.73" x2="247.78" y2="39.73"/><line class="a" x1="247.78" y1="39.73" x2="247.78" y2="39.73"/><line class="a" x1="162.05" y1="89.23" x2="190.62" y2="72.73"/><line class="a" x1="247.78" y1="39.73" x2="247.78" y2="39.73"/><line class="a" x1="190.62" y1="72.73" x2="247.78" y2="39.73"/><line class="a" x1="247.78" y1="39.73" x2="247.78" y2="39.73"/><line class="a" x1="162.05" y1="89.23" x2="162.05" y2="89.23"/><line class="a" x1="247.78" y1="39.73" x2="247.78" y2="39.73"/><line class="a" x1="247.78" y1="39.73" x2="247.78" y2="39.73"/><line class="a" x1="247.78" y1="39.73" x2="247.78" y2="39.73"/><line class="a" x1="247.78" y1="39.73" x2="247.78" y2="39.73"/><line class="a" x1="247.78" y1="39.73" x2="247.78" y2="39.73"/><line class="a" x1="247.78" y1="39.73" x2="247.78" y2="39.73"/><line class="a" x1="263.24" y1="48.66" x2="247.78" y2="39.73"/><line class="a" x1="247.78" y1="39.73" x2="247.78" y2="39.73"/><line class="a" x1="247.78" y1="39.73" x2="247.78" y2="39.73"/><line class="a" x1="247.78" y1="39.73" x2="247.78" y2="39.73"/><line class="a" x1="180.69" y1="1" x2="190.62" y2="6.73"/><line class="a" x1="247.78" y1="39.73" x2="247.78" y2="39.73"/><line class="a" x1="247.78" y1="39.73" x2="190.62" y2="6.73"/><line class="a" x1="263.24" y1="12.96" x2="247.78" y2="39.73"/><line class="a" x1="247.78" y1="39.73" x2="247.78" y2="39.73"/><line class="a" x1="247.78" y1="39.73" x2="247.78" y2="39.73"/><line class="a" x1="190.62" y1="138.73" x2="219.2" y2="89.23"/><line class="a" x1="247.78" y1="39.73" x2="247.78" y2="39.73"/><line class="a" x1="247.78" y1="39.73" x2="219.2" y2="89.23"/><line class="a" x1="247.78" y1="39.73" x2="247.78" y2="39.73"/><line class="a" x1="247.78" y1="39.73" x2="247.78" y2="39.73"/><line class="a" x1="247.78" y1="39.73" x2="247.78" y2="39.73"/><line class="a" x1="247.78" y1="39.73" x2="247.78" y2="39.73"/><line class="a" x1="133.47" y1="39.73" x2="133.47" y2="39.73"/><line class="a" x1="133.47" y1="39.73" x2="133.47" y2="39.73"/><line class="a" x1="133.47" y1="39.73" x2="155.83" y2="1"/><line class="a" x1="133.47" y1="39.73" x2="133.47" y2="39.73"/><line class="a" x1="133.47" y1="39.73" x2="133.47" y2="39.73"/><line class="a" x1="133.47" y1="39.73" x2="133.47" y2="39.73"/><line class="a" x1="162.05" y1="89.23" x2="133.47" y2="39.73"/><line class="a" x1="190.62" y1="138.73" x2="162.05" y2="89.23"/><line class="a" x1="133.47" y1="39.73" x2="133.47" y2="39.73"/><line class="a" x1="133.47" y1="39.73" x2="133.47" y2="39.73"/><line class="a" x1="133.47" y1="39.73" x2="133.47" y2="39.73"/><line class="a" x1="190.62" y1="138.73" x2="190.62" y2="138.73"/><line class="a" x1="190.62" y1="138.73" x2="190.62" y2="138.73"/><line class="a" x1="133.47" y1="39.73" x2="133.47" y2="39.73"/><line class="a" x1="247.78" y1="39.73" x2="247.78" y2="39.73"/><line class="a" x1="247.78" y1="39.73" x2="247.78" y2="39.73"/><line class="a" x1="247.78" y1="39.73" x2="247.78" y2="39.73"/><line class="a" x1="263.24" y1="12.96" x2="247.78" y2="39.73"/><line class="a" x1="247.78" y1="39.73" x2="247.78" y2="39.73"/><line class="a" x1="247.78" y1="39.73" x2="247.78" y2="39.73"/><line class="a" x1="247.78" y1="39.73" x2="247.78" y2="39.73"/><line class="a" x1="247.78" y1="39.73" x2="247.78" y2="39.73"/><line class="a" x1="247.78" y1="39.73" x2="247.78" y2="39.73"/><line class="a" x1="247.78" y1="39.73" x2="247.78" y2="39.73"/><line class="a" x1="247.78" y1="39.73" x2="247.78" y2="39.73"/><line class="a" x1="247.78" y1="39.73" x2="247.78" y2="39.73"/><line class="a" x1="247.78" y1="39.73" x2="247.78" y2="39.73"/><line class="a" x1="247.78" y1="39.73" x2="247.78" y2="39.73"/><line class="a" x1="247.78" y1="39.73" x2="247.78" y2="39.73"/><line class="a" x1="263.24" y1="39.73" x2="247.78" y2="39.73"/><line class="a" x1="225.42" y1="1" x2="247.78" y2="39.73"/><line class="a" x1="133.47" y1="39.73" x2="133.47" y2="39.73"/><line class="a" x1="133.47" y1="39.73" x2="247.78" y2="39.73"/><line class="a" x1="247.78" y1="39.73" x2="247.78" y2="39.73"/><line class="a" x1="133.47" y1="39.73" x2="133.47" y2="39.73"/><line class="a" x1="247.78" y1="39.73" x2="247.78" y2="39.73"/><line class="a" x1="133.47" y1="39.73" x2="133.47" y2="39.73"/><line class="a" x1="190.62" y1="138.73" x2="190.62" y2="138.73"/><line class="a" x1="247.78" y1="39.73" x2="219.2" y2="89.23"/><line class="a" x1="190.62" y1="138.73" x2="190.62" y2="138.73"/><line class="a" x1="247.78" y1="39.73" x2="247.78" y2="39.73"/><line class="a" x1="190.62" y1="138.73" x2="219.2" y2="89.23"/><line class="a" x1="133.47" y1="39.73" x2="133.47" y2="39.73"/><line class="a" x1="133.47" y1="39.73" x2="133.47" y2="39.73"/><line class="a" x1="133.47" y1="39.73" x2="133.47" y2="39.73"/><line class="a" x1="133.47" y1="39.73" x2="133.47" y2="39.73"/><line class="a" x1="190.62" y1="138.73" x2="190.62" y2="138.73"/><line class="a" x1="76.31" y1="138.73" x2="76.31" y2="138.73"/><line class="a" x1="76.31" y1="138.73" x2="76.31" y2="138.73"/><line class="a" x1="76.31" y1="138.73" x2="76.31" y2="138.73"/><line class="a" x1="76.31" y1="138.73" x2="76.31" y2="138.73"/><line class="a" x1="76.31" y1="138.73" x2="76.31" y2="138.73"/><line class="a" x1="76.31" y1="138.73" x2="76.31" y2="138.73"/><line class="a" x1="76.31" y1="138.73" x2="76.31" y2="138.73"/><line class="a" x1="190.62" y1="138.73" x2="190.62" y2="138.73"/><line class="a" x1="76.31" y1="138.73" x2="190.62" y2="138.73"/><polyline class="a" points="76.31 138.73 76.31 138.73 76.31 138.73"/><line class="a" x1="133.47" y1="39.73" x2="104.89" y2="89.23"/><line class="a" x1="76.31" y1="138.73" x2="76.31" y2="138.73"/><line class="a" x1="76.31" y1="138.73" x2="104.89" y2="89.23"/><line class="a" x1="190.62" y1="138.73" x2="190.62" y2="138.73"/><line class="a" x1="190.62" y1="138.73" x2="190.62" y2="138.73"/><line class="a" x1="190.62" y1="138.73" x2="190.62" y2="138.73"/><line class="a" x1="162.04" y1="89.23" x2="133.47" y2="39.73"/><line class="a" x1="190.62" y1="138.73" x2="190.62" y2="138.73"/><line class="a" x1="133.47" y1="39.73" x2="133.47" y2="39.73"/><line class="a" x1="133.47" y1="39.73" x2="133.47" y2="39.73"/><line class="a" x1="133.47" y1="39.73" x2="133.47" y2="39.73"/><line class="a" x1="190.62" y1="138.73" x2="162.04" y2="89.23"/><line class="a" x1="190.62" y1="138.73" x2="190.62" y2="138.73"/><line class="a" x1="190.62" y1="138.73" x2="263.24" y2="138.73"/><line class="a" x1="190.62" y1="138.73" x2="190.62" y2="138.73"/><line class="a" x1="190.62" y1="138.73" x2="190.62" y2="138.73"/><line class="a" x1="156.59" y1="197.68" x2="162.05" y2="188.23"/><line class="a" x1="162.05" y1="188.23" x2="190.62" y2="138.73"/><line class="a" x1="190.62" y1="138.73" x2="190.62" y2="138.73"/><line class="a" x1="190.62" y1="138.73" x2="190.62" y2="138.73"/><line class="a" x1="224.66" y1="197.68" x2="190.62" y2="138.73"/><line class="a" x1="190.62" y1="138.73" x2="190.62" y2="138.73"/></svg>