<svg xmlns="http://www.w3.org/2000/svg" viewBox="0 0 263.97 198.68"><defs><style>.a{fill:none;stroke:#98deea;stroke-miterlimit:10;stroke-width:2px;}</style></defs><title>mesh5</title><line class="a" x1="0.87" y1="190.09" x2="0.87" y2="190.09"/><line class="a" x1="11.84" y1="197.68" x2="11.84" y2="197.68"/><line class="a" x1="0.87" y1="190.09" x2="0.87" y2="190.09"/><line class="a" x1="0.87" y1="82.82" x2="0.87" y2="82.82"/><line class="a" x1="0.87" y1="73.67" x2="0.87" y2="73.67"/><line class="a" x1="14.72" y1="1" x2="14.72" y2="1"/><line class="a" x1="14.72" y1="1" x2="14.72" y2="1"/><line class="a" x1="0.87" y1="55.35" x2="0.87" y2="55.35"/><line class="a" x1="0.87" y1="64.51" x2="0.87" y2="64.51"/><line class="a" x1="0.87" y1="64.51" x2="0.87" y2="64.51"/><line class="a" x1="0.87" y1="69.09" x2="0.87" y2="69.09"/><line class="a" x1="0.87" y1="69.09" x2="0.87" y2="69.09"/><line class="a" x1="0.87" y1="145.18" x2="0.87" y2="145.18"/><line class="a" x1="0.87" y1="91.4" x2="0.87" y2="91.4"/><line class="a" x1="0.87" y1="82.82" x2="0.87" y2="82.82"/><line class="a" x1="0.87" y1="55.35" x2="0.87" y2="55.35"/><line class="a" x1="0.87" y1="55.35" x2="0.87" y2="55.35"/><line class="a" x1="0.87" y1="55.35" x2="0.87" y2="55.35"/><line class="a" x1="202.51" y1="1" x2="202.51" y2="1"/><line class="a" x1="113.75" y1="197.68" x2="113.75" y2="197.68"/><line class="a" x1="0.87" y1="145.18" x2="0.87" y2="145.18"/><line class="a" x1="0.87" y1="82.82" x2="0.87" y2="82.82"/><line class="a" x1="39.51" y1="190.09" x2="39.51" y2="197.68"/><line class="a" x1="39.51" y1="176.65" x2="51.15" y2="169.92"/><line class="a" x1="86.08" y1="197.68" x2="86.08" y2="190.09"/><line class="a" x1="74.44" y1="169.92" x2="86.08" y2="176.65"/><line class="a" x1="86.08" y1="190.09" x2="86.08" y2="176.65"/><line class="a" x1="39.51" y1="190.09" x2="39.51" y2="176.65"/><line class="a" x1="62.8" y1="163.2" x2="51.15" y2="169.92"/><line class="a" x1="74.44" y1="169.92" x2="62.8" y2="163.2"/><line class="a" x1="16.22" y1="55.65" x2="16.22" y2="55.65"/><line class="a" x1="16.22" y1="69.09" x2="16.22" y2="69.09"/><line class="a" x1="0.87" y1="91.4" x2="4.58" y2="89.26"/><line class="a" x1="16.22" y1="69.09" x2="16.22" y2="69.09"/><line class="a" x1="16.22" y1="55.65" x2="14.66" y2="54.74"/><polyline class="a" points="4.58 89.26 16.22 82.53 16.22 82.53"/><line class="a" x1="4.58" y1="48.92" x2="14.66" y2="54.74"/><line class="a" x1="4.58" y1="48.92" x2="4.58" y2="48.92"/><line class="a" x1="4.58" y1="89.26" x2="4.58" y2="89.26"/><line class="a" x1="4.58" y1="48.92" x2="4.58" y2="48.92"/><polyline class="a" points="16.22 55.65 16.22 55.65 16.22 69.09"/><line class="a" x1="16.22" y1="82.53" x2="16.22" y2="69.09"/><line class="a" x1="202.51" y1="28.76" x2="202.51" y2="28.76"/><line class="a" x1="202.51" y1="28.76" x2="202.51" y2="28.76"/><line class="a" x1="237.44" y1="8.59" x2="237.44" y2="8.59"/><line class="a" x1="237.44" y1="8.59" x2="202.51" y2="28.76"/><line class="a" x1="250.59" y1="1" x2="237.44" y2="8.59"/><line class="a" x1="202.51" y1="69.09" x2="202.51" y2="28.76"/><line class="a" x1="132.66" y1="149.76" x2="132.66" y2="149.76"/><line class="a" x1="202.51" y1="69.09" x2="202.51" y2="69.09"/><line class="a" x1="202.51" y1="69.09" x2="202.51" y2="69.09"/><line class="a" x1="202.51" y1="109.42" x2="202.51" y2="69.09"/><line class="a" x1="202.51" y1="109.42" x2="202.51" y2="109.42"/><line class="a" x1="132.66" y1="149.76" x2="202.51" y2="109.42"/><line class="a" x1="202.51" y1="28.76" x2="202.51" y2="28.76"/><line class="a" x1="202.51" y1="28.76" x2="202.51" y2="28.76"/><line class="a" x1="154.44" y1="1" x2="202.51" y2="28.76"/><line class="a" x1="110.87" y1="1" x2="62.8" y2="28.76"/><line class="a" x1="132.66" y1="149.76" x2="132.66" y2="149.76"/><line class="a" x1="132.66" y1="149.76" x2="132.66" y2="149.76"/><line class="a" x1="132.65" y1="149.76" x2="132.66" y2="149.76"/><line class="a" x1="132.66" y1="149.76" x2="202.51" y2="190.09"/><line class="a" x1="202.51" y1="190.09" x2="202.51" y2="190.09"/><path class="a" d="M189.37,197.68l13.14-7.59"/><line class="a" x1="202.51" y1="190.09" x2="202.51" y2="190.09"/><path class="a" d="M215.66,197.68l-13.14-7.59"/><line class="a" x1="202.51" y1="190.09" x2="202.51" y2="197.68"/><line class="a" x1="202.51" y1="190.09" x2="202.51" y2="190.09"/><line class="a" x1="263.1" y1="155.11" x2="202.51" y2="190.09"/><path class="a" d="M202.51,149.76V109.42"/><path class="a" d="M202.51,190.09V149.76"/><line class="a" x1="202.51" y1="109.42" x2="202.51" y2="109.42"/><line class="a" x1="97.73" y1="48.92" x2="132.66" y2="69.09"/><line class="a" x1="97.73" y1="48.92" x2="62.8" y2="28.76"/><line class="a" x1="62.8" y1="109.42" x2="132.66" y2="69.09"/><line class="a" x1="132.66" y1="69.09" x2="132.66" y2="149.76"/><line class="a" x1="132.66" y1="69.09" x2="132.66" y2="1"/><line class="a" x1="179.23" y1="69.09" x2="202.51" y2="109.42"/><line class="a" x1="179.23" y1="69.09" x2="179.23" y2="69.09"/><line class="a" x1="139.92" y1="1" x2="179.23" y2="69.09"/><line class="a" x1="202.51" y1="28.76" x2="179.23" y2="69.09"/><line class="a" x1="179.23" y1="69.09" x2="179.23" y2="69.09"/><line class="a" x1="132.66" y1="149.76" x2="132.66" y2="149.76"/><line class="a" x1="179.23" y1="69.09" x2="132.66" y2="149.76"/><line class="a" x1="16.22" y1="28.76" x2="16.22" y2="28.76"/><line class="a" x1="20.94" y1="20.59" x2="27.43" y2="9.35"/><line class="a" x1="0.87" y1="55.35" x2="4.58" y2="48.92"/><line class="a" x1="16.22" y1="28.76" x2="20.94" y2="20.59"/><line class="a" x1="16.22" y1="28.76" x2="4.58" y2="48.92"/><line class="a" x1="27.87" y1="8.59" x2="27.87" y2="8.59"/><line class="a" x1="27.87" y1="8.59" x2="27.43" y2="9.35"/><line class="a" x1="27.87" y1="8.59" x2="32.25" y2="1"/><line class="a" x1="93.34" y1="1" x2="97.73" y2="8.59"/><line class="a" x1="62.8" y1="28.76" x2="62.8" y2="28.76"/><line class="a" x1="97.73" y1="8.59" x2="62.8" y2="28.76"/><line class="a" x1="62.8" y1="28.76" x2="62.8" y2="28.76"/><line class="a" x1="202.51" y1="1" x2="202.51" y2="28.76"/><line class="a" x1="202.51" y1="28.76" x2="202.51" y2="28.76"/><line class="a" x1="237.44" y1="8.59" x2="202.51" y2="28.76"/><line class="a" x1="233.06" y1="1" x2="237.44" y2="8.59"/><line class="a" x1="202.51" y1="28.76" x2="202.51" y2="28.76"/><line class="a" x1="202.51" y1="28.76" x2="202.51" y2="28.76"/><polyline class="a" points="202.51 28.76 202.51 28.76 202.51 28.76"/><line class="a" x1="202.51" y1="28.76" x2="202.51" y2="28.76"/><line class="a" x1="202.51" y1="1" x2="202.51" y2="28.76"/><line class="a" x1="202.51" y1="28.76" x2="202.51" y2="28.76"/><line class="a" x1="202.51" y1="28.76" x2="202.51" y2="28.76"/><polyline class="a" points="202.51 28.76 202.51 28.76 202.51 28.76"/><polyline class="a" points="171.97 1 167.59 8.59 202.51 28.76"/><line class="a" x1="62.8" y1="109.42" x2="97.73" y2="129.59"/><line class="a" x1="97.73" y1="129.59" x2="97.73" y2="129.59"/><line class="a" x1="97.73" y1="129.59" x2="97.73" y2="129.59"/><line class="a" x1="132.66" y1="149.76" x2="97.73" y2="129.59"/><line class="a" x1="97.73" y1="129.59" x2="97.73" y2="129.59"/><line class="a" x1="97.73" y1="129.59" x2="97.73" y2="129.59"/><line class="a" x1="62.8" y1="149.76" x2="62.8" y2="163.2"/><line class="a" x1="62.8" y1="109.42" x2="62.8" y2="149.76"/><line class="a" x1="27.87" y1="169.92" x2="0.87" y2="154.33"/><line class="a" x1="27.87" y1="169.92" x2="39.51" y2="176.65"/><line class="a" x1="97.73" y1="169.92" x2="132.66" y2="149.76"/><line class="a" x1="132.66" y1="149.76" x2="132.66" y2="149.76"/><line class="a" x1="86.08" y1="176.65" x2="97.73" y2="169.92"/><line class="a" x1="202.51" y1="190.09" x2="202.51" y2="190.09"/><line class="a" x1="202.51" y1="190.09" x2="263.1" y2="190.09"/><line class="a" x1="202.51" y1="190.09" x2="132.66" y2="190.09"/><line class="a" x1="202.51" y1="190.09" x2="202.51" y2="190.09"/><line class="a" x1="132.66" y1="149.76" x2="132.66" y2="149.76"/><line class="a" x1="132.66" y1="149.76" x2="202.51" y2="149.76"/><line class="a" x1="132.66" y1="149.76" x2="132.66" y2="149.76"/><line class="a" x1="39.51" y1="69.09" x2="16.22" y2="69.09"/><line class="a" x1="62.8" y1="69.09" x2="39.51" y2="69.09"/><line class="a" x1="16.22" y1="69.09" x2="16.22" y2="69.09"/><line class="a" x1="62.8" y1="28.76" x2="62.8" y2="28.76"/><line class="a" x1="16.22" y1="55.65" x2="16.22" y2="55.65"/><line class="a" x1="16.22" y1="69.09" x2="0.87" y2="69.09"/><line class="a" x1="62.8" y1="69.09" x2="62.8" y2="69.09"/><line class="a" x1="62.8" y1="28.76" x2="16.22" y2="55.65"/><line class="a" x1="16.22" y1="55.65" x2="0.87" y2="64.51"/><line class="a" x1="62.8" y1="69.09" x2="62.8" y2="69.09"/><line class="a" x1="62.8" y1="28.76" x2="62.8" y2="28.76"/><line class="a" x1="62.8" y1="28.76" x2="62.8" y2="28.76"/><line class="a" x1="39.51" y1="69.09" x2="39.51" y2="69.09"/><line class="a" x1="202.51" y1="190.09" x2="237.44" y2="129.59"/><line class="a" x1="27.87" y1="8.59" x2="27.87" y2="8.59"/><line class="a" x1="27.87" y1="8.59" x2="27.87" y2="8.59"/><line class="a" x1="60.02" y1="27.15" x2="27.87" y2="8.59"/><line class="a" x1="27.87" y1="8.59" x2="27.87" y2="8.59"/><line class="a" x1="62.8" y1="28.76" x2="62.8" y2="28.76"/><line class="a" x1="62.8" y1="28.76" x2="60.02" y2="27.15"/><line class="a" x1="27.87" y1="8.59" x2="27.87" y2="8.59"/><line class="a" x1="14.72" y1="1" x2="27.87" y2="8.59"/><line class="a" x1="62.8" y1="28.76" x2="62.8" y2="69.09"/><line class="a" x1="62.8" y1="69.09" x2="62.8" y2="109.42"/><line class="a" x1="27.87" y1="129.59" x2="27.87" y2="129.59"/><line class="a" x1="0.87" y1="145.18" x2="27.87" y2="129.59"/><line class="a" x1="62.8" y1="109.42" x2="27.87" y2="129.59"/><line class="a" x1="27.87" y1="129.59" x2="27.87" y2="129.59"/><line class="a" x1="27.87" y1="129.59" x2="27.87" y2="129.59"/><line class="a" x1="27.87" y1="129.59" x2="27.87" y2="129.59"/><line class="a" x1="39.51" y1="190.09" x2="16.22" y2="190.09"/><line class="a" x1="16.22" y1="190.09" x2="16.22" y2="190.09"/><line class="a" x1="0.87" y1="190.09" x2="16.22" y2="190.09"/><line class="a" x1="16.22" y1="190.09" x2="16.22" y2="190.09"/><line class="a" x1="16.22" y1="190.09" x2="16.22" y2="190.09"/><line class="a" x1="109.37" y1="190.09" x2="132.65" y2="190.09"/><line class="a" x1="86.08" y1="190.09" x2="109.37" y2="190.09"/><line class="a" x1="132.65" y1="190.09" x2="132.66" y2="190.09"/><line class="a" x1="109.37" y1="190.09" x2="109.37" y2="190.09"/><line class="a" x1="109.37" y1="190.09" x2="109.37" y2="190.09"/><line class="a" x1="39.51" y1="149.76" x2="39.51" y2="149.76"/><line class="a" x1="39.51" y1="149.76" x2="27.87" y2="129.59"/><line class="a" x1="27.87" y1="129.59" x2="27.87" y2="129.59"/><line class="a" x1="39.51" y1="149.76" x2="51.15" y2="169.92"/><line class="a" x1="39.51" y1="149.76" x2="39.51" y2="149.76"/><line class="a" x1="86.08" y1="149.76" x2="97.73" y2="129.59"/><line class="a" x1="74.44" y1="169.92" x2="86.08" y2="149.76"/><line class="a" x1="86.08" y1="149.76" x2="86.08" y2="149.76"/><line class="a" x1="74.44" y1="169.92" x2="74.44" y2="169.92"/><line class="a" x1="97.73" y1="129.59" x2="97.73" y2="129.59"/><line class="a" x1="86.08" y1="149.76" x2="86.08" y2="149.76"/><line class="a" x1="132.66" y1="149.76" x2="132.66" y2="149.76"/><line class="a" x1="132.66" y1="197.68" x2="132.66" y2="190.09"/><line class="a" x1="132.66" y1="190.09" x2="132.66" y2="149.76"/><line class="a" x1="132.66" y1="190.09" x2="132.66" y2="190.09"/><line class="a" x1="39.51" y1="149.76" x2="39.51" y2="149.76"/><line class="a" x1="11.84" y1="197.68" x2="16.22" y2="190.09"/><line class="a" x1="16.22" y1="190.09" x2="16.22" y2="190.09"/><line class="a" x1="16.22" y1="190.09" x2="16.22" y2="190.09"/><line class="a" x1="39.51" y1="149.76" x2="39.51" y2="149.76"/><line class="a" x1="62.8" y1="109.42" x2="78.94" y2="137.38"/><line class="a" x1="27.87" y1="169.92" x2="39.51" y2="149.76"/><line class="a" x1="39.51" y1="149.76" x2="39.51" y2="149.76"/><line class="a" x1="97.73" y1="169.92" x2="109.37" y2="190.09"/><line class="a" x1="86.08" y1="149.76" x2="86.08" y2="149.76"/><line class="a" x1="97.73" y1="169.92" x2="86.08" y2="149.76"/><line class="a" x1="16.22" y1="190.09" x2="16.22" y2="190.09"/><line class="a" x1="86.08" y1="149.76" x2="86.08" y2="149.76"/><line class="a" x1="27.87" y1="169.92" x2="16.22" y2="190.09"/><line class="a" x1="78.94" y1="137.38" x2="86.08" y2="149.76"/><line class="a" x1="109.37" y1="190.09" x2="109.37" y2="190.09"/><line class="a" x1="62.8" y1="109.42" x2="39.51" y2="149.76"/><line class="a" x1="113.75" y1="197.68" x2="109.37" y2="190.09"/><line class="a" x1="16.22" y1="190.09" x2="16.22" y2="190.09"/><line class="a" x1="109.37" y1="190.09" x2="109.37" y2="190.09"/><line class="a" x1="121.01" y1="169.92" x2="109.37" y2="190.09"/><line class="a" x1="104.99" y1="197.68" x2="109.37" y2="190.09"/><line class="a" x1="109.37" y1="190.09" x2="109.37" y2="190.09"/><line class="a" x1="0.87" y1="163.49" x2="4.58" y2="169.92"/><line class="a" x1="109.37" y1="190.09" x2="109.37" y2="190.09"/><line class="a" x1="109.37" y1="190.09" x2="109.37" y2="190.09"/><line class="a" x1="16.22" y1="190.09" x2="16.22" y2="190.09"/><line class="a" x1="20.6" y1="197.68" x2="16.22" y2="190.09"/><line class="a" x1="16.22" y1="190.09" x2="16.22" y2="190.09"/><line class="a" x1="16.22" y1="190.09" x2="16.22" y2="190.09"/><line class="a" x1="132.66" y1="149.76" x2="121.01" y2="169.92"/><line class="a" x1="16.22" y1="190.09" x2="8.94" y2="177.47"/><line class="a" x1="132.66" y1="149.76" x2="132.66" y2="149.76"/><line class="a" x1="4.58" y1="169.92" x2="8.94" y2="177.47"/><line class="a" x1="16.22" y1="149.76" x2="0.87" y2="149.76"/><line class="a" x1="62.8" y1="149.76" x2="86.08" y2="149.76"/><line class="a" x1="39.51" y1="149.76" x2="39.51" y2="149.76"/><line class="a" x1="109.37" y1="149.76" x2="132.65" y2="149.76"/><line class="a" x1="39.51" y1="149.76" x2="16.22" y2="149.76"/><line class="a" x1="132.66" y1="149.76" x2="132.65" y2="149.76"/><line class="a" x1="86.08" y1="149.76" x2="86.08" y2="149.76"/><line class="a" x1="39.51" y1="149.76" x2="39.51" y2="149.76"/><line class="a" x1="39.51" y1="149.76" x2="39.51" y2="149.76"/><line class="a" x1="62.8" y1="149.76" x2="39.51" y2="149.76"/><line class="a" x1="86.08" y1="149.76" x2="109.37" y2="149.76"/><line class="a" x1="86.08" y1="149.76" x2="86.08" y2="149.76"/><line class="a" x1="78.94" y1="137.38" x2="86.08" y2="149.76"/><line class="a" x1="97.73" y1="129.59" x2="97.73" y2="129.59"/><line class="a" x1="97.73" y1="129.59" x2="97.73" y2="129.59"/><line class="a" x1="86.08" y1="149.76" x2="86.08" y2="149.76"/><line class="a" x1="97.73" y1="129.59" x2="86.08" y2="149.76"/><line class="a" x1="86.08" y1="149.76" x2="86.08" y2="149.76"/><polyline class="a" points="78.94 137.38 74.44 129.59 97.72 129.59"/><line class="a" x1="39.51" y1="149.76" x2="39.51" y2="149.76"/><line class="a" x1="39.51" y1="149.76" x2="27.87" y2="129.59"/><line class="a" x1="39.51" y1="149.76" x2="39.51" y2="149.76"/><polyline class="a" points="39.51 149.76 51.15 129.59 27.87 129.59"/><line class="a" x1="27.87" y1="129.59" x2="27.87" y2="129.59"/><line class="a" x1="27.87" y1="129.59" x2="27.87" y2="129.59"/><line class="a" x1="16.22" y1="190.09" x2="16.22" y2="190.09"/><line class="a" x1="16.22" y1="190.09" x2="16.22" y2="190.09"/><line class="a" x1="16.22" y1="190.09" x2="16.22" y2="190.09"/><line class="a" x1="0.87" y1="190.09" x2="16.22" y2="190.09"/><line class="a" x1="11.84" y1="197.68" x2="16.22" y2="190.09"/><line class="a" x1="16.22" y1="190.09" x2="16.22" y2="190.09"/><line class="a" x1="132.66" y1="190.09" x2="132.65" y2="190.09"/><polyline class="a" points="121.01 169.92 121.01 169.92 109.37 190.09 109.37 190.09"/><line class="a" x1="121.01" y1="169.92" x2="132.65" y2="190.09"/><line class="a" x1="132.66" y1="190.09" x2="132.66" y2="190.09"/><line class="a" x1="109.37" y1="190.09" x2="132.65" y2="190.09"/><line class="a" x1="132.66" y1="190.09" x2="132.65" y2="190.09"/><line class="a" x1="109.37" y1="190.09" x2="109.37" y2="190.09"/><line class="a" x1="86.08" y1="149.76" x2="86.08" y2="149.76"/><line class="a" x1="109.37" y1="149.76" x2="86.08" y2="149.76"/><line class="a" x1="109.37" y1="149.76" x2="97.73" y2="129.59"/><line class="a" x1="97.73" y1="129.59" x2="97.73" y2="129.59"/><polyline class="a" points="97.72 129.59 86.08 149.76 86.08 149.76"/><line class="a" x1="97.73" y1="129.59" x2="97.73" y2="129.59"/><line class="a" x1="109.37" y1="190.09" x2="109.37" y2="190.09"/><line class="a" x1="109.37" y1="190.09" x2="109.37" y2="190.09"/><line class="a" x1="132.65" y1="190.09" x2="132.65" y2="190.09"/><line class="a" x1="132.65" y1="190.09" x2="132.66" y2="190.09"/><polyline class="a" points="109.37 190.09 109.37 190.09 109.37 190.09"/><line class="a" x1="113.75" y1="197.68" x2="109.37" y2="190.09"/><line class="a" x1="132.65" y1="190.09" x2="109.37" y2="190.09"/><line class="a" x1="128.27" y1="197.68" x2="132.65" y2="190.09"/><line class="a" x1="132.66" y1="190.09" x2="132.66" y2="190.09"/><line class="a" x1="132.66" y1="190.09" x2="132.65" y2="190.09"/><line class="a" x1="27.87" y1="129.59" x2="27.87" y2="129.59"/><line class="a" x1="39.51" y1="149.76" x2="39.51" y2="149.76"/><line class="a" x1="39.51" y1="149.76" x2="16.22" y2="149.76"/><polyline class="a" points="39.51 149.76 39.51 149.76 39.51 149.76"/><line class="a" x1="27.87" y1="129.59" x2="39.51" y2="149.76"/><line class="a" x1="16.22" y1="149.76" x2="27.87" y2="129.59"/><line class="a" x1="27.87" y1="129.59" x2="27.87" y2="129.59"/><line class="a" x1="39.51" y1="149.76" x2="39.51" y2="149.76"/><line class="a" x1="8.94" y1="177.47" x2="16.22" y2="190.09"/><line class="a" x1="4.58" y1="169.92" x2="0.87" y2="176.35"/><polyline class="a" points="8.94 177.47 4.58 169.92 4.58 169.92"/><polyline class="a" points="16.22 190.09 16.22 190.09 16.22 190.09"/><line class="a" x1="16.22" y1="190.09" x2="16.22" y2="190.09"/><line class="a" x1="16.22" y1="190.09" x2="16.22" y2="190.09"/><line class="a" x1="16.22" y1="190.09" x2="0.87" y2="190.09"/><line class="a" x1="237.44" y1="8.59" x2="237.44" y2="8.59"/><line class="a" x1="263.1" y1="53.03" x2="237.44" y2="8.59"/><line class="a" x1="202.51" y1="69.09" x2="202.51" y2="69.09"/><line class="a" x1="237.44" y1="8.59" x2="237.44" y2="8.59"/><line class="a" x1="237.44" y1="8.59" x2="202.51" y2="69.09"/><polyline class="a" points="263.1 85.14 237.44 129.59 202.51 69.09"/><line class="a" x1="202.51" y1="69.09" x2="202.51" y2="69.09"/><line class="a" x1="97.73" y1="48.92" x2="125.39" y2="1"/><polyline class="a" points="97.72 48.92 86.08 69.09 132.66 69.09"/><line class="a" x1="202.51" y1="69.09" x2="179.23" y2="69.09"/><line class="a" x1="179.23" y1="69.09" x2="179.23" y2="69.09"/><line class="a" x1="179.23" y1="69.09" x2="179.23" y2="69.09"/><line class="a" x1="132.66" y1="69.09" x2="179.23" y2="69.09"/><line class="a" x1="202.51" y1="69.09" x2="202.51" y2="69.09"/><line class="a" x1="263.1" y1="69.09" x2="202.51" y2="69.09"/><polyline class="a" points="202.51 69.09 202.51 55.65 179.23 69.09"/><polyline class="a" points="202.51 69.09 202.51 82.53 179.23 69.09"/><line class="a" x1="4.58" y1="89.26" x2="0.87" y2="82.82"/><line class="a" x1="27.87" y1="129.59" x2="27.87" y2="129.59"/><line class="a" x1="4.58" y1="89.26" x2="4.58" y2="89.26"/><line class="a" x1="4.58" y1="89.26" x2="4.58" y2="89.26"/><line class="a" x1="27.87" y1="129.59" x2="16.22" y2="109.42"/><line class="a" x1="10.4" y1="99.34" x2="16.22" y2="109.42"/><line class="a" x1="16.22" y1="109.42" x2="16.22" y2="109.42"/><line class="a" x1="4.58" y1="89.26" x2="10.4" y2="99.34"/><line class="a" x1="16.22" y1="69.09" x2="16.22" y2="69.09"/><line class="a" x1="62.8" y1="69.09" x2="62.8" y2="69.09"/><line class="a" x1="39.51" y1="69.09" x2="16.22" y2="69.09"/><line class="a" x1="62.8" y1="109.42" x2="62.8" y2="69.09"/><line class="a" x1="39.51" y1="69.09" x2="39.51" y2="69.09"/><line class="a" x1="62.8" y1="69.09" x2="39.51" y2="69.09"/><line class="a" x1="16.22" y1="82.53" x2="16.22" y2="82.53"/><line class="a" x1="0.87" y1="73.67" x2="16.22" y2="82.53"/><line class="a" x1="62.8" y1="109.42" x2="16.22" y2="82.53"/><polyline class="a" points="4.58 89.26 4.58 89.26 4.58 89.26"/><line class="a" x1="4.58" y1="89.26" x2="0.87" y2="82.82"/><line class="a" x1="4.58" y1="89.26" x2="16.22" y2="82.53"/><line class="a" x1="4.58" y1="89.26" x2="4.58" y2="89.26"/><line class="a" x1="16.22" y1="82.53" x2="16.22" y2="82.53"/><line class="a" x1="16.22" y1="69.09" x2="16.22" y2="69.09"/><line class="a" x1="16.22" y1="82.53" x2="16.22" y2="69.09"/><line class="a" x1="16.22" y1="69.09" x2="0.87" y2="69.09"/><line class="a" x1="16.22" y1="82.53" x2="0.87" y2="73.67"/><line class="a" x1="16.22" y1="109.42" x2="16.22" y2="109.42"/><line class="a" x1="62.8" y1="109.42" x2="16.22" y2="109.42"/><line class="a" x1="27.87" y1="129.59" x2="16.22" y2="109.42"/><line class="a" x1="16.22" y1="109.42" x2="16.22" y2="109.42"/><polyline class="a" points="16.22 109.42 16.22 109.42 16.22 109.42"/><line class="a" x1="16.22" y1="109.42" x2="16.22" y2="109.42"/><line class="a" x1="27.87" y1="129.59" x2="27.87" y2="129.59"/><line class="a" x1="62.8" y1="109.42" x2="27.87" y2="129.59"/><line class="a" x1="39.51" y1="69.09" x2="39.51" y2="69.09"/><line class="a" x1="39.51" y1="69.09" x2="39.51" y2="69.09"/><polyline class="a" points="62.8 69.09 62.8 69.09 62.8 69.09"/><line class="a" x1="62.8" y1="69.09" x2="62.8" y2="109.42"/><line class="a" x1="39.51" y1="69.09" x2="39.51" y2="69.09"/><line class="a" x1="39.51" y1="69.09" x2="55.03" y2="69.09"/><line class="a" x1="62.8" y1="69.09" x2="55.03" y2="69.09"/><line class="a" x1="62.8" y1="109.42" x2="39.51" y2="69.09"/><line class="a" x1="39.51" y1="69.09" x2="39.51" y2="69.09"/><line class="a" x1="16.22" y1="109.42" x2="10.4" y2="99.34"/><line class="a" x1="27.87" y1="129.59" x2="27.87" y2="129.59"/><line class="a" x1="4.58" y1="89.26" x2="4.58" y2="89.26"/><line class="a" x1="0.87" y1="82.82" x2="4.58" y2="89.26"/><line class="a" x1="16.22" y1="109.42" x2="16.22" y2="109.42"/><line class="a" x1="4.58" y1="89.26" x2="4.58" y2="89.26"/><line class="a" x1="10.4" y1="99.34" x2="4.58" y2="89.26"/><line class="a" x1="16.22" y1="109.42" x2="23.35" y2="121.76"/><polyline class="a" points="27.87 129.59 27.87 129.59 23.35 121.77"/><line class="a" x1="27.87" y1="129.59" x2="27.87" y2="129.59"/><line class="a" x1="0.87" y1="145.18" x2="27.87" y2="129.59"/><line class="a" x1="4.58" y1="89.26" x2="4.58" y2="89.26"/><line class="a" x1="0.87" y1="91.4" x2="4.58" y2="89.26"/><line class="a" x1="4.58" y1="89.26" x2="4.58" y2="89.26"/><polyline class="a" points="4.58 89.26 4.58 89.26 0.87 82.82"/><line class="a" x1="16.22" y1="109.42" x2="23.35" y2="121.76"/><line class="a" x1="27.87" y1="129.59" x2="27.87" y2="129.59"/><polyline class="a" points="16.22 109.42 16.22 109.42 16.22 109.42"/><line class="a" x1="16.22" y1="109.42" x2="16.22" y2="109.42"/><line class="a" x1="16.22" y1="109.42" x2="16.22" y2="109.42"/><line class="a" x1="0.87" y1="136.02" x2="16.22" y2="109.42"/><line class="a" x1="0.87" y1="145.18" x2="27.87" y2="129.59"/><line class="a" x1="16.22" y1="109.42" x2="16.22" y2="109.42"/><line class="a" x1="27.87" y1="129.59" x2="23.35" y2="121.76"/><line class="a" x1="4.58" y1="48.92" x2="10.4" y2="38.84"/><line class="a" x1="4.58" y1="48.92" x2="0.87" y2="55.35"/><line class="a" x1="10.4" y1="38.84" x2="16.22" y2="28.76"/><polyline class="a" points="27.87 8.59 27.87 8.59 27.87 8.59"/><line class="a" x1="4.58" y1="48.92" x2="4.58" y2="48.92"/><line class="a" x1="16.22" y1="28.76" x2="27.87" y2="8.59"/><line class="a" x1="27.87" y1="8.59" x2="27.87" y2="8.59"/><line class="a" x1="27.87" y1="8.59" x2="27.87" y2="8.59"/><line class="a" x1="14.72" y1="1" x2="27.87" y2="8.59"/><line class="a" x1="27.87" y1="8.59" x2="27.87" y2="8.59"/><line class="a" x1="4.58" y1="48.92" x2="0.87" y2="55.35"/><line class="a" x1="4.58" y1="48.92" x2="4.58" y2="48.92"/><line class="a" x1="0.87" y1="46.78" x2="4.58" y2="48.92"/><line class="a" x1="4.58" y1="48.92" x2="4.58" y2="48.92"/><line class="a" x1="20.94" y1="20.59" x2="17.31" y2="26.87"/><line class="a" x1="20.94" y1="20.59" x2="24.61" y2="14.23"/><line class="a" x1="27.87" y1="8.59" x2="24.61" y2="14.23"/><line class="a" x1="0.87" y1="2.16" x2="16.22" y2="28.76"/><line class="a" x1="16.22" y1="28.76" x2="16.22" y2="28.76"/><line class="a" x1="16.22" y1="28.76" x2="16.22" y2="28.76"/><line class="a" x1="16.22" y1="28.76" x2="16.22" y2="28.76"/><line class="a" x1="17.31" y1="26.87" x2="16.22" y2="28.76"/><polyline class="a" points="16.22 28.76 16.22 28.76 16.22 28.76"/><polyline class="a" points="14.72 1 27.87 8.59 27.87 8.59"/><line class="a" x1="27.87" y1="8.59" x2="27.87" y2="8.59"/><line class="a" x1="16.22" y1="28.76" x2="17.31" y2="26.87"/><line class="a" x1="4.58" y1="48.92" x2="0.87" y2="55.35"/><line class="a" x1="16.22" y1="28.76" x2="16.22" y2="28.76"/><line class="a" x1="27.87" y1="8.59" x2="17.31" y2="26.87"/><line class="a" x1="27.87" y1="8.59" x2="27.87" y2="8.59"/><line class="a" x1="4.58" y1="48.92" x2="4.58" y2="48.92"/><line class="a" x1="27.87" y1="8.59" x2="27.87" y2="8.59"/><line class="a" x1="16.22" y1="28.76" x2="10.4" y2="38.84"/><line class="a" x1="10.4" y1="38.84" x2="4.58" y2="48.92"/><line class="a" x1="62.8" y1="69.09" x2="62.8" y2="28.76"/><line class="a" x1="62.8" y1="28.76" x2="62.8" y2="28.76"/><line class="a" x1="39.51" y1="69.09" x2="51.15" y2="69.09"/><line class="a" x1="62.8" y1="69.09" x2="51.15" y2="69.09"/><line class="a" x1="16.22" y1="69.09" x2="16.22" y2="69.09"/><line class="a" x1="39.51" y1="69.09" x2="16.22" y2="69.09"/><line class="a" x1="62.8" y1="28.76" x2="62.8" y2="28.76"/><line class="a" x1="62.8" y1="69.09" x2="62.8" y2="69.09"/><line class="a" x1="62.8" y1="69.09" x2="62.8" y2="69.09"/><line class="a" x1="62.8" y1="69.09" x2="62.8" y2="69.09"/><line class="a" x1="16.22" y1="55.65" x2="0.87" y2="64.51"/><line class="a" x1="16.22" y1="55.65" x2="16.22" y2="55.65"/><line class="a" x1="62.8" y1="28.76" x2="16.22" y2="55.65"/><line class="a" x1="14.66" y1="54.74" x2="4.58" y2="48.92"/><line class="a" x1="4.58" y1="48.92" x2="0.87" y2="55.35"/><line class="a" x1="4.58" y1="48.92" x2="4.58" y2="48.92"/><line class="a" x1="14.66" y1="54.74" x2="16.22" y2="55.65"/><polyline class="a" points="4.58 48.92 4.58 48.92 4.58 48.92"/><line class="a" x1="16.22" y1="55.65" x2="16.22" y2="55.65"/><line class="a" x1="16.22" y1="55.65" x2="16.22" y2="69.09"/><line class="a" x1="16.22" y1="55.65" x2="16.22" y2="55.65"/><line class="a" x1="16.22" y1="69.09" x2="16.22" y2="69.09"/><line class="a" x1="16.22" y1="69.09" x2="0.87" y2="69.09"/><line class="a" x1="16.22" y1="55.65" x2="0.87" y2="64.51"/><line class="a" x1="62.8" y1="28.76" x2="16.22" y2="28.76"/><line class="a" x1="27.87" y1="8.59" x2="27.87" y2="8.59"/><line class="a" x1="27.87" y1="8.59" x2="27.87" y2="8.59"/><line class="a" x1="16.22" y1="28.76" x2="16.22" y2="28.76"/><line class="a" x1="16.22" y1="28.76" x2="16.22" y2="28.76"/><line class="a" x1="27.87" y1="8.59" x2="27.43" y2="9.35"/><line class="a" x1="24.61" y1="14.23" x2="16.22" y2="28.76"/><line class="a" x1="16.22" y1="28.76" x2="16.22" y2="28.76"/><polyline class="a" points="16.22 28.76 16.22 28.76 16.22 28.76"/><line class="a" x1="27.43" y1="9.35" x2="24.61" y2="14.23"/><line class="a" x1="16.22" y1="28.76" x2="16.22" y2="28.76"/><line class="a" x1="60.02" y1="27.15" x2="27.87" y2="8.59"/><line class="a" x1="60.02" y1="27.15" x2="62.8" y2="28.76"/><polyline class="a" points="62.8 28.76 62.8 69.09 62.8 69.09"/><line class="a" x1="39.51" y1="69.09" x2="39.51" y2="69.09"/><line class="a" x1="62.8" y1="28.76" x2="62.8" y2="28.76"/><line class="a" x1="62.8" y1="28.76" x2="62.8" y2="28.76"/><line class="a" x1="62.8" y1="28.76" x2="39.51" y2="69.09"/><line class="a" x1="39.51" y1="69.09" x2="39.51" y2="69.09"/><line class="a" x1="55.03" y1="69.09" x2="51.15" y2="69.09"/><line class="a" x1="39.51" y1="69.09" x2="39.51" y2="69.09"/><line class="a" x1="39.51" y1="69.09" x2="39.51" y2="69.09"/><line class="a" x1="62.8" y1="28.76" x2="62.8" y2="28.76"/><line class="a" x1="55.03" y1="69.09" x2="62.8" y2="69.09"/><line class="a" x1="51.15" y1="69.09" x2="39.51" y2="69.09"/></svg>