<svg xmlns="http://www.w3.org/2000/svg" viewBox="0 0 273.99 217.57"><defs><style>.a{fill:#d2fbf7;}.b{fill:none;}.b,.e{stroke:#838d95;stroke-miterlimit:10;stroke-width:2.3px;}.c{fill:#838d95;}.d,.e{fill:#fff;}</style></defs><title>mesh9</title><polygon class="a" points="108.56 104.49 108.56 71.66 136.99 55.24 165.43 71.66 165.43 104.49 136.99 120.91 108.56 104.49"/><path class="a" d="M93.2,1,39.68,31.89V144.26L137,200.44l97.31-56.18V31.89L180.79,1ZM211.87,131.3,137,174.53,62.12,131.3V44.85L137,1.62l74.87,43.23Z"/><line class="b" x1="240.3" y1="28.43" x2="240.3" y2="28.43"/><line class="b" x1="272.99" y1="166.59" x2="240.3" y2="147.72"/><line class="b" x1="240.3" y1="28.43" x2="205.87" y2="48.31"/><line class="b" x1="33.69" y1="147.72" x2="0.99" y2="91.1"/><line class="b" x1="33.69" y1="147.72" x2="33.68" y2="147.72"/><line class="b" x1="0.99" y1="147.72" x2="33.68" y2="147.72"/><line class="b" x1="102.56" y1="147.72" x2="85.34" y2="177.54"/><line class="b" x1="136.75" y1="88.49" x2="136.63" y2="88.7"/><line class="b" x1="171.43" y1="28.43" x2="154.21" y2="58.25"/><line class="b" x1="171.43" y1="28.43" x2="187.27" y2="0.99"/><line class="b" x1="136.63" y1="88.7" x2="119.78" y2="117.9"/><line class="b" x1="136.87" y1="88.28" x2="136.81" y2="88.39"/><line class="b" x1="136.99" y1="88.07" x2="136.87" y2="88.28"/><line class="b" x1="136.81" y1="88.39" x2="136.75" y2="88.49"/><line class="b" x1="154.21" y1="58.25" x2="136.99" y2="88.07"/><line class="b" x1="102.56" y1="147.72" x2="119.78" y2="117.9"/><line class="b" x1="62.56" y1="216.99" x2="85.34" y2="177.54"/><line class="b" x1="33.69" y1="28.43" x2="33.69" y2="28.43"/><line class="b" x1="33.69" y1="28.43" x2="0.99" y2="85.05"/><line class="b" x1="49.52" y1="0.99" x2="33.69" y2="28.43"/><line class="b" x1="272.99" y1="85.05" x2="240.3" y2="28.43"/><line class="b" x1="240.3" y1="28.43" x2="224.46" y2="0.99"/><line class="b" x1="240.3" y1="28.43" x2="240.3" y2="28.43"/><line class="b" x1="240.3" y1="28.43" x2="240.3" y2="28.43"/><line class="b" x1="33.69" y1="28.43" x2="33.69" y2="28.43"/><line class="b" x1="33.68" y1="28.43" x2="33.69" y2="28.43"/><line class="b" x1="33.69" y1="28.43" x2="0.99" y2="85.05"/><line class="b" x1="0.99" y1="28.43" x2="33.68" y2="28.43"/><line class="b" x1="0.99" y1="166.59" x2="33.69" y2="147.72"/><line class="b" x1="0.99" y1="9.55" x2="33.69" y2="28.43"/><line class="b" x1="33.69" y1="28.43" x2="33.69" y2="28.43"/><line class="b" x1="0.99" y1="88.49" x2="33.69" y2="88.49"/><line class="b" x1="136.99" y1="127.84" x2="119.96" y2="118"/><line class="b" x1="119.78" y1="117.9" x2="119.96" y2="118"/><line class="b" x1="102.56" y1="68.47" x2="102.56" y2="88.49"/><line class="b" x1="154.03" y1="118" x2="136.99" y2="127.84"/><line class="b" x1="102.8" y1="108.1" x2="119.78" y2="117.9"/><line class="b" x1="154.21" y1="58.25" x2="136.99" y2="48.31"/><polyline class="b" points="102.56 88.49 102.56 107.96 102.8 108.1"/><line class="b" x1="136.99" y1="48.31" x2="119.59" y2="58.36"/><polyline class="b" points="171.43 88.49 171.43 68.19 154.4 58.36"/><line class="b" x1="154.21" y1="58.25" x2="154.39" y2="58.36"/><polyline class="b" points="171.43 88.49 171.43 107.96 154.03 118"/><polyline class="b" points="119.59 58.36 102.56 68.19 102.56 68.47"/><polyline class="b" points="136.99 8.55 102.56 28.43 68.12 48.31 68.12 48.45"/><polyline class="b" points="68.24 127.91 102.56 147.72 102.56 147.72"/><polyline class="b" points="171.43 28.43 171.43 28.43 136.99 8.55"/><polyline class="b" points="205.87 88.49 205.87 88.08 205.87 48.31"/><polyline class="b" points="68.24 127.91 68.12 127.84 68.12 88.49"/><line class="b" x1="102.74" y1="147.83" x2="102.56" y2="147.72"/><polyline class="b" points="205.87 88.49 205.87 127.84 171.43 147.72 171.25 147.82"/><polyline class="b" points="68.12 48.45 68.12 88.08 68.12 88.49"/><line class="b" x1="102.74" y1="147.83" x2="136.99" y2="167.6"/><line class="b" x1="171.43" y1="28.43" x2="205.87" y2="48.31"/><line class="b" x1="171.25" y1="147.83" x2="136.99" y2="167.6"/><line class="b" x1="136.99" y1="207.37" x2="85.34" y2="177.54"/><line class="b" x1="33.69" y1="147.72" x2="85.34" y2="177.54"/><line class="b" x1="192.79" y1="0.99" x2="240.3" y2="28.43"/><line class="b" x1="240.3" y1="147.72" x2="136.99" y2="207.37"/><line class="b" x1="240.3" y1="28.43" x2="240.3" y2="28.43"/><line class="b" x1="81.2" y1="0.99" x2="33.69" y2="28.43"/><line class="b" x1="240.3" y1="28.43" x2="240.3" y2="28.43"/><line class="b" x1="240.3" y1="88.49" x2="240.3" y2="28.43"/><line class="b" x1="240.3" y1="147.72" x2="240.3" y2="88.49"/><line class="b" x1="33.69" y1="28.43" x2="33.69" y2="88.49"/><line class="b" x1="33.69" y1="147.72" x2="33.69" y2="88.49"/><line class="b" x1="102.56" y1="148.14" x2="102.74" y2="147.83"/><line class="b" x1="171.25" y1="147.83" x2="171.43" y2="148.14"/><line class="b" x1="136.99" y1="88.49" x2="136.87" y2="88.28"/><line class="b" x1="102.56" y1="28.85" x2="119.59" y2="58.36"/><line class="b" x1="171.25" y1="147.83" x2="154.03" y2="118"/><line class="b" x1="119.59" y1="58.36" x2="136.87" y2="88.28"/><line class="b" x1="136.99" y1="88.49" x2="154.03" y2="118"/><line class="b" x1="205.87" y1="88.49" x2="240.3" y2="88.49"/><line class="b" x1="102.56" y1="88.49" x2="136.75" y2="88.49"/><line class="b" x1="102.56" y1="88.49" x2="68.12" y2="88.49"/><line class="b" x1="136.99" y1="88.49" x2="136.99" y2="88.49"/><line class="b" x1="136.75" y1="88.49" x2="136.99" y2="88.49"/><line class="b" x1="171.43" y1="88.49" x2="136.99" y2="88.49"/><line class="b" x1="33.69" y1="88.49" x2="68.12" y2="88.49"/><line class="b" x1="205.87" y1="88.49" x2="171.43" y2="88.49"/><line class="b" x1="136.99" y1="8.55" x2="136.99" y2="0.99"/><line class="b" x1="136.99" y1="167.6" x2="136.99" y2="127.84"/><line class="b" x1="136.99" y1="48.31" x2="136.99" y2="88.07"/><line class="b" x1="136.99" y1="207.37" x2="136.99" y2="167.6"/><line class="b" x1="136.99" y1="88.49" x2="136.99" y2="127.84"/><line class="b" x1="136.99" y1="8.55" x2="136.99" y2="48.31"/><line class="b" x1="136.99" y1="88.49" x2="136.99" y2="88.07"/><line class="b" x1="33.68" y1="147.72" x2="0.99" y2="128.98"/><line class="b" x1="0.99" y1="47.44" x2="33.68" y2="28.43"/><line class="b" x1="33.69" y1="147.72" x2="68.24" y2="127.91"/><line class="b" x1="136.63" y1="88.7" x2="102.8" y2="108.1"/><line class="b" x1="102.56" y1="68.47" x2="68.12" y2="48.45"/><line class="b" x1="102.56" y1="68.47" x2="136.81" y2="88.39"/><line class="b" x1="68.24" y1="127.91" x2="102.8" y2="108.1"/><line class="b" x1="136.81" y1="88.39" x2="136.99" y2="88.49"/><line class="b" x1="33.69" y1="28.43" x2="68.12" y2="48.45"/><line class="b" x1="136.63" y1="88.7" x2="136.99" y2="88.49"/><line class="b" x1="0.99" y1="85.05" x2="0.99" y2="85.05"/><circle class="c" cx="154.36" cy="58.25" r="6.56"/><path class="d" d="M154.36,52.84A5.41,5.41,0,1,1,149,58.25a5.41,5.41,0,0,1,5.41-5.41m0-2.3a7.71,7.71,0,1,0,7.71,7.71,7.72,7.72,0,0,0-7.71-7.71Z"/><circle class="c" cx="33.68" cy="28.43" r="6.56"/><path class="d" d="M33.69,23a5.41,5.41,0,1,1-5.41,5.41A5.41,5.41,0,0,1,33.69,23m0-2.3a7.71,7.71,0,1,0,7.71,7.71,7.72,7.72,0,0,0-7.71-7.71Z"/><circle class="c" cx="171.43" cy="28.85" r="6.56"/><path class="d" d="M171.43,23.44A5.41,5.41,0,1,1,166,28.85a5.41,5.41,0,0,1,5.41-5.41m0-2.3a7.71,7.71,0,1,0,7.71,7.71,7.72,7.72,0,0,0-7.71-7.71Z"/><circle class="c" cx="136.99" cy="166.6" r="6.56"/><path class="d" d="M137,161.19a5.41,5.41,0,1,1-5.41,5.41,5.41,5.41,0,0,1,5.41-5.41m0-2.3a7.71,7.71,0,1,0,7.71,7.71A7.72,7.72,0,0,0,137,158.9Z"/><circle class="c" cx="136.99" cy="205.74" r="6.56"/><path class="d" d="M137,200.33a5.41,5.41,0,1,1-5.41,5.41,5.41,5.41,0,0,1,5.41-5.41m0-2.3a7.71,7.71,0,1,0,7.71,7.71A7.72,7.72,0,0,0,137,198Z"/><circle class="c" cx="68.12" cy="48.31" r="6.56"/><path class="d" d="M68.12,42.9a5.41,5.41,0,1,1-5.41,5.41,5.41,5.41,0,0,1,5.41-5.41m0-2.3a7.71,7.71,0,1,0,7.71,7.71,7.72,7.72,0,0,0-7.71-7.71Z"/><circle class="c" cx="240.3" cy="28.43" r="6.56"/><path class="d" d="M240.3,23a5.41,5.41,0,1,1-5.41,5.41A5.41,5.41,0,0,1,240.3,23m0-2.3A7.71,7.71,0,1,0,248,28.43a7.72,7.72,0,0,0-7.71-7.71Z"/><circle class="c" cx="205.87" cy="48.31" r="6.56"/><path class="d" d="M205.87,42.9a5.41,5.41,0,1,1-5.41,5.41,5.41,5.41,0,0,1,5.41-5.41m0-2.3a7.71,7.71,0,1,0,7.71,7.71,7.72,7.72,0,0,0-7.71-7.71Z"/><circle class="c" cx="119.78" cy="118.11" r="6.56"/><path class="d" d="M119.78,112.7a5.41,5.41,0,1,1-5.41,5.41,5.41,5.41,0,0,1,5.41-5.41m0-2.3a7.71,7.71,0,1,0,7.71,7.71,7.72,7.72,0,0,0-7.71-7.71Z"/><circle class="e" cx="136.99" cy="88.49" r="7.22"/></svg>