<svg xmlns="http://www.w3.org/2000/svg" viewBox="0 0 155.95 155.95"><defs><style>.a{fill:none;stroke:#d2fbf7;stroke-linecap:round;stroke-linejoin:round;}</style></defs><title>mesh1</title><line class="a" x1="39.94" y1="45.53" x2="13.94" y2="0.5"/><line class="a" x1="68.51" y1="95.03" x2="39.94" y2="45.53"/><line class="a" x1="11.36" y1="144.53" x2="39.73" y2="144.53"/><line class="a" x1="8.78" y1="0.5" x2="0.5" y2="14.84"/><line class="a" x1="68.51" y1="95.03" x2="68.72" y2="95.38"/><line class="a" x1="97.09" y1="144.53" x2="39.94" y2="144.53"/><line class="a" x1="97.09" y1="144.53" x2="68.72" y2="95.38"/><line class="a" x1="39.73" y1="144.53" x2="39.94" y2="144.53"/><line class="a" x1="11.36" y1="144.53" x2="0.5" y2="144.53"/><line class="a" x1="154.25" y1="144.53" x2="154.25" y2="144.53"/><line class="a" x1="147.95" y1="155.45" x2="154.25" y2="144.53"/><line class="a" x1="155.45" y1="142.45" x2="154.25" y2="144.53"/><line class="a" x1="123.09" y1="0.5" x2="97.09" y2="45.53"/><line class="a" x1="11.36" y1="45.53" x2="39.94" y2="45.53"/><line class="a" x1="11.36" y1="45.53" x2="0.5" y2="45.53"/><line class="a" x1="97.09" y1="45.53" x2="39.94" y2="45.53"/><line class="a" x1="68.51" y1="95.03" x2="68.31" y2="95.38"/><line class="a" x1="33.63" y1="155.45" x2="39.84" y2="144.71"/><line class="a" x1="39.94" y1="144.53" x2="68.31" y2="95.38"/><line class="a" x1="39.84" y1="144.71" x2="39.94" y2="144.53"/><line class="a" x1="97.09" y1="45.53" x2="68.51" y2="95.03"/><line class="a" x1="97.09" y1="144.53" x2="78.18" y2="155.45"/><line class="a" x1="0.5" y1="2.3" x2="3.62" y2="0.5"/><line class="a" x1="19.09" y1="0.5" x2="97.09" y2="45.53"/><line class="a" x1="11.36" y1="95.38" x2="11.36" y2="95.38"/><line class="a" x1="11.36" y1="95.38" x2="11.36" y2="95.38"/><line class="a" x1="39.94" y1="45.88" x2="11.36" y2="95.38"/><line class="a" x1="0.5" y1="114.19" x2="11.36" y2="95.38"/><line class="a" x1="11.36" y1="95.38" x2="11.36" y2="95.38"/><line class="a" x1="39.73" y1="144.53" x2="11.36" y2="95.38"/><line class="a" x1="39.84" y1="144.71" x2="39.94" y2="144.88"/><line class="a" x1="39.73" y1="144.53" x2="39.84" y2="144.71"/><line class="a" x1="11.36" y1="95.38" x2="11.36" y2="95.38"/><line class="a" x1="0.5" y1="76.58" x2="11.36" y2="95.38"/><line class="a" x1="11.36" y1="95.38" x2="11.36" y2="95.38"/><line class="a" x1="97.09" y1="95.38" x2="68.72" y2="95.38"/><line class="a" x1="68.31" y1="95.38" x2="11.36" y2="95.38"/><line class="a" x1="11.36" y1="95.38" x2="11.36" y2="95.38"/><line class="a" x1="0.5" y1="95.38" x2="11.36" y2="95.38"/><line class="a" x1="11.36" y1="95.38" x2="11.36" y2="95.38"/><line class="a" x1="68.72" y1="95.38" x2="68.31" y2="95.38"/><line class="a" x1="11.36" y1="95.38" x2="11.36" y2="95.38"/><line class="a" x1="11.36" y1="155.45" x2="11.36" y2="144.53"/><line class="a" x1="11.36" y1="95.38" x2="11.36" y2="95.38"/><line class="a" x1="11.36" y1="144.53" x2="11.36" y2="95.38"/><line class="a" x1="11.36" y1="45.53" x2="11.36" y2="95.38"/><line class="a" x1="11.36" y1="0.5" x2="11.36" y2="45.53"/><line class="a" x1="125.67" y1="95.03" x2="125.67" y2="95.03"/><line class="a" x1="154.45" y1="144.53" x2="155.45" y2="144.53"/><line class="a" x1="154.25" y1="45.53" x2="139.89" y2="70.41"/><line class="a" x1="154.25" y1="45.53" x2="154.25" y2="45.53"/><line class="a" x1="125.67" y1="95.03" x2="125.47" y2="95.38"/><line class="a" x1="139.89" y1="70.41" x2="125.67" y2="95.03"/><line class="a" x1="97.09" y1="144.53" x2="154.25" y2="144.53"/><line class="a" x1="125.47" y1="95.38" x2="97.09" y2="144.53"/><line class="a" x1="154.45" y1="144.53" x2="154.25" y2="144.53"/><line class="a" x1="155.45" y1="43.45" x2="154.25" y2="45.53"/><line class="a" x1="154.25" y1="144.53" x2="154.25" y2="144.53"/><line class="a" x1="154.25" y1="144.53" x2="154.25" y2="144.53"/><line class="a" x1="154.25" y1="45.53" x2="155.45" y2="45.53"/><line class="a" x1="125.67" y1="95.03" x2="125.67" y2="95.03"/><line class="a" x1="97.09" y1="45.53" x2="154.25" y2="45.53"/><line class="a" x1="154.25" y1="45.53" x2="154.25" y2="45.53"/><line class="a" x1="140.04" y1="119.91" x2="154.25" y2="144.53"/><line class="a" x1="125.87" y1="95.38" x2="140.04" y2="119.91"/><line class="a" x1="125.67" y1="95.03" x2="125.87" y2="95.38"/><line class="a" x1="97.09" y1="45.53" x2="125.67" y2="95.03"/><line class="a" x1="155.45" y1="146.62" x2="154.35" y2="144.71"/><line class="a" x1="154.25" y1="144.53" x2="154.35" y2="144.71"/><line class="a" x1="154.25" y1="78.77" x2="154.25" y2="95.38"/><polyline class="a" points="155.45 77.84 154.25 78.53 154.25 78.77"/><line class="a" x1="154.45" y1="111.65" x2="155.45" y2="112.23"/><polyline class="a" points="154.25 95.38 154.25 111.53 154.45 111.65"/><line class="a" x1="154.25" y1="144.53" x2="125.77" y2="128.09"/><line class="a" x1="125.67" y1="95.03" x2="125.67" y2="95.38"/><line class="a" x1="155.45" y1="145.23" x2="154.4" y2="144.62"/><line class="a" x1="154.4" y1="144.62" x2="154.25" y2="144.53"/><line class="a" x1="154.25" y1="144.53" x2="154.25" y2="144.53"/><line class="a" x1="154.25" y1="45.53" x2="155.45" y2="44.84"/><line class="a" x1="154.25" y1="45.53" x2="154.25" y2="45.53"/><line class="a" x1="154.25" y1="144.53" x2="154.25" y2="144.53"/><line class="a" x1="125.67" y1="62.15" x2="125.67" y2="95.03"/><polyline class="a" points="125.67 95.03 125.67 95.03 125.67 95.03"/><polyline class="a" points="154.25 45.53 125.67 62.03 125.67 62.15"/><polyline class="a" points="125.67 95.38 125.67 128.03 125.77 128.09"/><line class="a" x1="155.45" y1="11.84" x2="97.09" y2="45.53"/><line class="a" x1="116.01" y1="155.45" x2="97.09" y2="144.53"/><line class="a" x1="97.09" y1="95.38" x2="97.09" y2="144.53"/><line class="a" x1="97.09" y1="45.53" x2="97.09" y2="95.38"/><line class="a" x1="154.25" y1="144.88" x2="154.35" y2="144.71"/><line class="a" x1="154.35" y1="144.71" x2="154.4" y2="144.62"/><line class="a" x1="154.45" y1="144.53" x2="155.45" y2="142.8"/><line class="a" x1="154.4" y1="144.62" x2="154.45" y2="144.53"/><line class="a" x1="154.25" y1="45.88" x2="155.45" y2="47.96"/><line class="a" x1="125.47" y1="95.38" x2="125.67" y2="95.38"/><line class="a" x1="125.47" y1="95.38" x2="97.09" y2="95.38"/><line class="a" x1="125.87" y1="95.38" x2="125.67" y2="95.38"/><line class="a" x1="154.25" y1="95.38" x2="155.45" y2="95.38"/><line class="a" x1="154.25" y1="95.38" x2="125.87" y2="95.38"/><line class="a" x1="11.36" y1="95.38" x2="0.5" y2="101.61"/><line class="a" x1="11.36" y1="95.38" x2="0.5" y2="89.07"/><line class="a" x1="97.09" y1="45.53" x2="125.67" y2="62.15"/><line class="a" x1="139.89" y1="70.41" x2="154.25" y2="78.77"/><line class="a" x1="139.89" y1="70.41" x2="125.67" y2="62.15"/><line class="a" x1="155.45" y1="111.08" x2="154.45" y2="111.65"/><line class="a" x1="154.45" y1="111.65" x2="140.04" y2="119.91"/><line class="a" x1="155.45" y1="79.46" x2="154.25" y2="78.77"/><line class="a" x1="125.77" y1="128.09" x2="97.09" y2="144.53"/><line class="a" x1="125.77" y1="128.09" x2="140.04" y2="119.91"/><line class="a" x1="33.63" y1="155.45" x2="78.18" y2="155.45"/><line class="a" x1="0.5" y1="89.07" x2="0.5" y2="95.38"/><line class="a" x1="33.63" y1="155.45" x2="11.36" y2="155.45"/><line class="a" x1="0.5" y1="76.58" x2="0.5" y2="89.07"/><polyline class="a" points="0.5 144.53 0.5 155.45 11.36 155.45"/><line class="a" x1="155.45" y1="145.23" x2="155.45" y2="144.53"/><line class="a" x1="0.5" y1="144.53" x2="0.5" y2="114.19"/><polyline class="a" points="0.5 2.3 0.5 0.5 3.62 0.5"/><line class="a" x1="3.62" y1="0.5" x2="8.78" y2="0.5"/><line class="a" x1="0.5" y1="2.3" x2="0.5" y2="14.84"/><line class="a" x1="0.5" y1="101.61" x2="0.5" y2="114.19"/><line class="a" x1="123.09" y1="0.5" x2="19.09" y2="0.5"/><line class="a" x1="155.45" y1="11.84" x2="155.45" y2="43.45"/><line class="a" x1="0.5" y1="95.38" x2="0.5" y2="101.61"/><line class="a" x1="155.45" y1="79.46" x2="155.45" y2="95.38"/><line class="a" x1="155.45" y1="95.38" x2="155.45" y2="111.08"/><line class="a" x1="155.45" y1="144.53" x2="155.45" y2="142.8"/><line class="a" x1="0.5" y1="45.53" x2="0.5" y2="76.58"/><line class="a" x1="155.45" y1="77.84" x2="155.45" y2="47.96"/><line class="a" x1="0.5" y1="14.84" x2="0.5" y2="45.53"/><line class="a" x1="155.45" y1="45.53" x2="155.45" y2="47.96"/><line class="a" x1="155.45" y1="44.84" x2="155.45" y2="45.53"/><line class="a" x1="19.09" y1="0.5" x2="13.94" y2="0.5"/><line class="a" x1="8.78" y1="0.5" x2="11.36" y2="0.5"/><line class="a" x1="155.45" y1="77.84" x2="155.45" y2="79.46"/><line class="a" x1="13.94" y1="0.5" x2="11.36" y2="0.5"/><line class="a" x1="155.45" y1="112.23" x2="155.45" y2="142.45"/><line class="a" x1="78.18" y1="155.45" x2="116.01" y2="155.45"/><line class="a" x1="155.45" y1="111.08" x2="155.45" y2="112.23"/><polyline class="a" points="147.95 155.45 155.45 155.45 155.45 146.62"/><line class="a" x1="147.95" y1="155.45" x2="116.01" y2="155.45"/><line class="a" x1="155.45" y1="146.62" x2="155.45" y2="145.23"/><polyline class="a" points="155.45 11.84 155.45 0.5 123.09 0.5"/><line class="a" x1="155.45" y1="142.8" x2="155.45" y2="142.45"/><line class="a" x1="155.45" y1="43.45" x2="155.45" y2="44.84"/></svg>