<?xml version="1.0" encoding="utf-8"?>
<!-- Generator: Adobe Illustrator 21.1.0, SVG Export Plug-In . SVG Version: 6.00 Build 0)  -->
<svg version="1.1" id="Layer_1" xmlns="http://www.w3.org/2000/svg" xmlns:xlink="http://www.w3.org/1999/xlink" x="0px" y="0px"
	 viewBox="0 0 155.9 155.9" style="enable-background:new 0 0 155.9 155.9;" xml:space="preserve">
<style type="text/css">
	.st0{fill:none;stroke:#D7DBDD;stroke-miterlimit:10;}
</style>
<title>mesh3</title>
<line class="st0" x1="39.9" y1="45.5" x2="13.9" y2="0.5"/>
<line class="st0" x1="68.5" y1="95" x2="39.9" y2="45.5"/>
<line class="st0" x1="8.8" y1="0.5" x2="0.5" y2="14.8"/>
<line class="st0" x1="68.5" y1="95" x2="68.7" y2="95.4"/>
<line class="st0" x1="97.1" y1="144.5" x2="68.7" y2="95.4"/>
<line class="st0" x1="39.7" y1="144.5" x2="39.9" y2="144.5"/>
<line class="st0" x1="154.2" y1="144.5" x2="154.2" y2="144.5"/>
<line class="st0" x1="147.9" y1="155.4" x2="154.2" y2="144.5"/>
<line class="st0" x1="155.4" y1="142.4" x2="154.2" y2="144.5"/>
<line class="st0" x1="123.1" y1="0.5" x2="97.1" y2="45.5"/>
<line class="st0" x1="11.4" y1="45.5" x2="39.9" y2="45.5"/>
<line class="st0" x1="11.4" y1="45.5" x2="0.5" y2="45.5"/>
<line class="st0" x1="97.1" y1="45.5" x2="39.9" y2="45.5"/>
<line class="st0" x1="68.5" y1="95" x2="68.3" y2="95.4"/>
<line class="st0" x1="33.6" y1="155.4" x2="39.8" y2="144.7"/>
<line class="st0" x1="39.9" y1="144.5" x2="68.3" y2="95.4"/>
<line class="st0" x1="39.8" y1="144.7" x2="39.9" y2="144.5"/>
<line class="st0" x1="97.1" y1="45.5" x2="68.5" y2="95"/>
<line class="st0" x1="97.1" y1="144.5" x2="78.2" y2="155.4"/>
<line class="st0" x1="0.5" y1="2.3" x2="3.6" y2="0.5"/>
<line class="st0" x1="19.1" y1="0.5" x2="97.1" y2="45.5"/>
<line class="st0" x1="11.4" y1="95.4" x2="11.4" y2="95.4"/>
<line class="st0" x1="11.4" y1="95.4" x2="11.4" y2="95.4"/>
<line class="st0" x1="39.9" y1="45.9" x2="11.4" y2="95.4"/>
<line class="st0" x1="0.5" y1="114.2" x2="11.4" y2="95.4"/>
<line class="st0" x1="11.4" y1="95.4" x2="11.4" y2="95.4"/>
<line class="st0" x1="39.7" y1="144.5" x2="11.4" y2="95.4"/>
<line class="st0" x1="39.8" y1="144.7" x2="39.9" y2="144.9"/>
<line class="st0" x1="39.7" y1="144.5" x2="39.8" y2="144.7"/>
<line class="st0" x1="11.4" y1="95.4" x2="11.4" y2="95.4"/>
<line class="st0" x1="0.5" y1="76.6" x2="11.4" y2="95.4"/>
<line class="st0" x1="11.4" y1="95.4" x2="11.4" y2="95.4"/>
<line class="st0" x1="97.1" y1="95.4" x2="68.7" y2="95.4"/>
<line class="st0" x1="68.3" y1="95.4" x2="11.4" y2="95.4"/>
<line class="st0" x1="11.4" y1="95.4" x2="11.4" y2="95.4"/>
<line class="st0" x1="0.5" y1="95.4" x2="11.4" y2="95.4"/>
<line class="st0" x1="11.4" y1="95.4" x2="11.4" y2="95.4"/>
<line class="st0" x1="68.7" y1="95.4" x2="68.3" y2="95.4"/>
<line class="st0" x1="11.4" y1="95.4" x2="11.4" y2="95.4"/>
<line class="st0" x1="11.4" y1="95.4" x2="11.4" y2="95.4"/>
<line class="st0" x1="125.7" y1="95" x2="125.7" y2="95"/>
<line class="st0" x1="154.4" y1="144.5" x2="155.4" y2="144.5"/>
<line class="st0" x1="154.2" y1="45.5" x2="139.9" y2="70.4"/>
<line class="st0" x1="154.2" y1="45.5" x2="154.2" y2="45.5"/>
<line class="st0" x1="125.7" y1="95" x2="125.5" y2="95.4"/>
<line class="st0" x1="139.9" y1="70.4" x2="125.7" y2="95"/>
<line class="st0" x1="97.1" y1="144.5" x2="154.2" y2="144.5"/>
<line class="st0" x1="125.5" y1="95.4" x2="97.1" y2="144.5"/>
<line class="st0" x1="154.4" y1="144.5" x2="154.2" y2="144.5"/>
<line class="st0" x1="155.4" y1="43.5" x2="154.2" y2="45.5"/>
<line class="st0" x1="154.2" y1="144.5" x2="154.2" y2="144.5"/>
<line class="st0" x1="154.2" y1="144.5" x2="154.2" y2="144.5"/>
<line class="st0" x1="154.2" y1="45.5" x2="155.4" y2="45.5"/>
<line class="st0" x1="125.7" y1="95" x2="125.7" y2="95"/>
<line class="st0" x1="97.1" y1="45.5" x2="154.2" y2="45.5"/>
<line class="st0" x1="154.2" y1="45.5" x2="154.2" y2="45.5"/>
<line class="st0" x1="140" y1="119.9" x2="154.2" y2="144.5"/>
<line class="st0" x1="125.9" y1="95.4" x2="140" y2="119.9"/>
<line class="st0" x1="125.7" y1="95" x2="125.9" y2="95.4"/>
<line class="st0" x1="97.1" y1="45.5" x2="125.7" y2="95"/>
<line class="st0" x1="155.4" y1="146.6" x2="154.4" y2="144.7"/>
<line class="st0" x1="154.2" y1="144.5" x2="154.4" y2="144.7"/>
<polyline class="st0" points="155.4,77.8 154.2,78.5 154.2,78.8 "/>
<line class="st0" x1="154.4" y1="111.7" x2="155.4" y2="112.2"/>
<line class="st0" x1="154.2" y1="144.5" x2="125.8" y2="128.1"/>
<line class="st0" x1="125.7" y1="95" x2="125.7" y2="95.4"/>
<line class="st0" x1="155.4" y1="145.2" x2="154.2" y2="144.5"/>
<line class="st0" x1="154.2" y1="144.5" x2="154.2" y2="144.5"/>
<line class="st0" x1="154.2" y1="45.5" x2="155.4" y2="44.8"/>
<line class="st0" x1="154.2" y1="45.5" x2="154.2" y2="45.5"/>
<line class="st0" x1="154.2" y1="144.5" x2="154.2" y2="144.5"/>
<line class="st0" x1="125.7" y1="62.2" x2="125.7" y2="95"/>
<polyline class="st0" points="125.7,95 125.7,95 125.7,95 "/>
<polyline class="st0" points="154.2,45.5 125.7,62 125.7,62.2 "/>
<polyline class="st0" points="125.7,95.4 125.7,128 125.8,128.1 "/>
<line class="st0" x1="155.4" y1="11.8" x2="97.1" y2="45.5"/>
<line class="st0" x1="116" y1="155.4" x2="97.1" y2="144.5"/>
<line class="st0" x1="97.1" y1="95.4" x2="97.1" y2="144.5"/>
<line class="st0" x1="97.1" y1="45.5" x2="97.1" y2="95.4"/>
<line class="st0" x1="154.2" y1="45.9" x2="155.4" y2="48"/>
<line class="st0" x1="125.5" y1="95.4" x2="125.7" y2="95.4"/>
<line class="st0" x1="125.9" y1="95.4" x2="125.7" y2="95.4"/>
<line class="st0" x1="154.2" y1="95.4" x2="155.4" y2="95.4"/>
<line class="st0" x1="154.2" y1="95.4" x2="125.9" y2="95.4"/>
<line class="st0" x1="11.4" y1="95.4" x2="0.5" y2="101.6"/>
<line class="st0" x1="11.4" y1="95.4" x2="0.5" y2="89.1"/>
<line class="st0" x1="97.1" y1="45.5" x2="125.7" y2="62.2"/>
<line class="st0" x1="139.9" y1="70.4" x2="154.2" y2="78.8"/>
<line class="st0" x1="139.9" y1="70.4" x2="125.7" y2="62.2"/>
<line class="st0" x1="155.4" y1="111.1" x2="154.4" y2="111.7"/>
<line class="st0" x1="154.4" y1="111.7" x2="140" y2="119.9"/>
<line class="st0" x1="155.4" y1="79.5" x2="154.2" y2="78.8"/>
<line class="st0" x1="125.8" y1="128.1" x2="97.1" y2="144.5"/>
<line class="st0" x1="125.8" y1="128.1" x2="140" y2="119.9"/>
<line class="st0" x1="3.6" y1="0.5" x2="8.8" y2="0.5"/>
<line class="st0" x1="155.4" y1="44.8" x2="155.4" y2="45.5"/>
<line class="st0" x1="19.1" y1="0.5" x2="13.9" y2="0.5"/>
<line class="st0" x1="8.8" y1="0.5" x2="11.4" y2="0.5"/>
<line class="st0" x1="13.9" y1="0.5" x2="11.4" y2="0.5"/>
<line class="st0" x1="155.4" y1="111.1" x2="155.4" y2="112.2"/>
</svg>
