<svg xmlns="http://www.w3.org/2000/svg" viewBox="0 0 272.92 219.5"><defs><style>.a{fill:#d2fbf7;}.b{fill:none;stroke-width:2.3px;}.b,.e{stroke:#838d95;stroke-miterlimit:10;}.c{fill:#838d95;}.d,.e{fill:#fff;}.e{stroke-width:2.37px;}</style></defs><title>mesh8</title><polygon class="a" points="236.38 65.17 138.97 8.93 96.22 33.61 124.11 81.92 138.97 73.33 180.6 97.37 180.6 145.44 165.74 154.02 193.63 202.33 236.38 177.65 236.38 65.17"/><line class="b" x1="23.94" y1="54.99" x2="23.94" y2="54.99"/><line class="b" x1="193.66" y1="216.12" x2="193.66" y2="216.12"/><line class="b" x1="183.48" y1="216.12" x2="183.48" y2="216.12"/><line class="b" x1="183.48" y1="216.12" x2="183.48" y2="216.12"/><line class="b" x1="193.66" y1="216.12" x2="193.66" y2="216.12"/><line class="b" x1="193.66" y1="216.12" x2="193.66" y2="216.12"/><line class="b" x1="23.94" y1="54.99" x2="23.94" y2="54.99"/><line class="b" x1="173.73" y1="101.34" x2="173.73" y2="121.41"/><line class="b" x1="173.73" y1="121.41" x2="173.73" y2="141.47"/><line class="b" x1="121.59" y1="91.3" x2="104.21" y2="101.34"/><line class="b" x1="138.97" y1="81.27" x2="156.35" y2="91.3"/><line class="b" x1="121.59" y1="91.3" x2="138.97" y2="81.27"/><line class="b" x1="156.35" y1="91.3" x2="173.73" y2="101.34"/><line class="b" x1="139.83" y1="161.05" x2="173.73" y2="141.47"/><line class="b" x1="243.25" y1="61.2" x2="243.25" y2="61.2"/><line class="b" x1="243.25" y1="181.61" x2="243.25" y2="181.61"/><line class="b" x1="243.25" y1="181.61" x2="243.25" y2="181.61"/><line class="b" x1="243.25" y1="61.2" x2="243.25" y2="61.2"/><line class="b" x1="243.25" y1="181.61" x2="243.25" y2="181.61"/><line class="b" x1="243.25" y1="61.2" x2="243.25" y2="61.2"/><line class="b" x1="243.25" y1="61.2" x2="243.25" y2="61.2"/><line class="b" x1="243.25" y1="61.2" x2="243.25" y2="61.2"/><line class="b" x1="243.25" y1="61.2" x2="243.25" y2="61.2"/><line class="b" x1="191.11" y1="211.71" x2="191.11" y2="211.71"/><polyline class="b" points="193.66 216.12 191.11 211.71 191.11 211.71"/><line class="b" x1="183.48" y1="216.12" x2="191.11" y2="211.71"/><line class="b" x1="191.11" y1="211.71" x2="191.11" y2="211.71"/><line class="b" x1="183.48" y1="216.12" x2="191.11" y2="211.71"/><line class="b" x1="191.11" y1="211.71" x2="192.86" y2="214.75"/><line class="b" x1="193.66" y1="216.12" x2="192.86" y2="214.75"/><line class="b" x1="191.11" y1="211.71" x2="191.11" y2="211.71"/><line class="b" x1="191.11" y1="211.71" x2="191.11" y2="211.71"/><line class="b" x1="191.11" y1="211.71" x2="191.11" y2="211.71"/><line class="b" x1="191.11" y1="211.71" x2="191.11" y2="211.71"/><line class="b" x1="191.11" y1="211.71" x2="191.11" y2="211.71"/><line class="b" x1="191.11" y1="211.71" x2="191.11" y2="211.71"/><line class="b" x1="191.11" y1="211.71" x2="191.11" y2="211.71"/><line class="b" x1="191.11" y1="211.71" x2="193.66" y2="216.12"/><line class="b" x1="191.11" y1="211.71" x2="191.11" y2="211.71"/><line class="b" x1="191.11" y1="211.71" x2="191.11" y2="211.71"/><line class="b" x1="193.66" y1="216.12" x2="192.86" y2="214.75"/><line class="b" x1="192.86" y1="214.75" x2="191.11" y2="211.71"/><line class="b" x1="191.11" y1="211.71" x2="191.11" y2="211.71"/><line class="b" x1="191.11" y1="211.71" x2="191.11" y2="211.71"/><line class="b" x1="191.11" y1="211.71" x2="191.11" y2="211.71"/><line class="b" x1="243.25" y1="181.61" x2="191.11" y2="211.71"/><line class="b" x1="86.83" y1="211.71" x2="34.69" y2="181.61"/><line class="b" x1="86.83" y1="211.71" x2="94.47" y2="216.12"/><line class="b" x1="183.48" y1="216.12" x2="191.11" y2="211.71"/><line class="b" x1="191.11" y1="211.71" x2="191.11" y2="211.71"/><line class="b" x1="191.11" y1="211.71" x2="191.11" y2="211.71"/><line class="b" x1="191.11" y1="211.71" x2="191.11" y2="211.71"/><line class="b" x1="191.11" y1="211.71" x2="243.25" y2="181.61"/><line class="b" x1="191.11" y1="31.1" x2="191.11" y2="31.1"/><line class="b" x1="243.25" y1="61.2" x2="243.25" y2="61.2"/><line class="b" x1="243.25" y1="61.2" x2="191.11" y2="31.1"/><line class="b" x1="243.25" y1="61.2" x2="243.25" y2="61.2"/><line class="b" x1="191.11" y1="31.1" x2="191.11" y2="31.1"/><line class="b" x1="138.97" y1="0.99" x2="191.11" y2="31.1"/><line class="b" x1="191.11" y1="31.1" x2="191.11" y2="31.1"/><line class="b" x1="138.97" y1="61.2" x2="138.97" y2="61.2"/><line class="b" x1="138.97" y1="81.27" x2="138.97" y2="61.2"/><line class="b" x1="138.97" y1="0.99" x2="138.97" y2="61.2"/><line class="b" x1="138.97" y1="181.61" x2="138.97" y2="216.12"/><line class="b" x1="34.69" y1="61.2" x2="34.69" y2="61.2"/><line class="b" x1="0.57" y1="41.5" x2="86.83" y2="91.3"/><line class="b" x1="243.25" y1="181.61" x2="243.25" y2="181.61"/><line class="b" x1="191.11" y1="151.51" x2="243.25" y2="181.61"/><line class="b" x1="191.11" y1="151.51" x2="173.73" y2="141.47"/><line class="b" x1="243.25" y1="61.2" x2="243.25" y2="61.2"/><line class="b" x1="191.11" y1="91.3" x2="243.25" y2="61.2"/><line class="b" x1="243.25" y1="61.2" x2="243.25" y2="61.2"/><line class="b" x1="191.11" y1="91.3" x2="173.73" y2="101.34"/><line class="b" x1="86.83" y1="151.51" x2="104.21" y2="141.47"/><line class="b" x1="1" y1="201.07" x2="86.83" y2="151.51"/><line class="b" x1="243.25" y1="61.2" x2="243.25" y2="61.2"/><line class="b" x1="243.25" y1="61.2" x2="243.25" y2="61.2"/><line class="b" x1="34.69" y1="61.2" x2="34.69" y2="61.2"/><line class="b" x1="138.97" y1="0.99" x2="86.83" y2="31.1"/><line class="b" x1="34.69" y1="61.2" x2="34.69" y2="61.2"/><line class="b" x1="86.83" y1="31.1" x2="86.83" y2="31.1"/><line class="b" x1="86.83" y1="31.1" x2="86.83" y2="31.1"/><line class="b" x1="34.69" y1="61.2" x2="86.83" y2="31.1"/><line class="b" x1="69.45" y1="121.41" x2="57.87" y2="121.41"/><line class="b" x1="34.69" y1="121.41" x2="34.69" y2="121.41"/><line class="b" x1="34.69" y1="121.41" x2="34.69" y2="121.41"/><line class="b" x1="69.45" y1="121.41" x2="69.45" y2="121.41"/><line class="b" x1="69.45" y1="121.41" x2="104.21" y2="121.41"/><line class="b" x1="69.45" y1="121.41" x2="69.45" y2="121.41"/><line class="b" x1="34.69" y1="121.41" x2="57.87" y2="121.41"/><line class="b" x1="208.49" y1="121.41" x2="208.49" y2="121.41"/><line class="b" x1="208.49" y1="121.41" x2="243.25" y2="121.41"/><line class="b" x1="208.49" y1="121.41" x2="173.73" y2="121.41"/><line class="b" x1="243.25" y1="121.41" x2="243.25" y2="121.41"/><line class="b" x1="208.49" y1="121.41" x2="208.49" y2="121.41"/><line class="b" x1="191.11" y1="211.71" x2="173.73" y2="181.61"/><line class="b" x1="173.73" y1="181.61" x2="173.73" y2="181.61"/><line class="b" x1="191.11" y1="211.71" x2="191.11" y2="211.71"/><line class="b" x1="191.11" y1="211.71" x2="191.11" y2="211.71"/><line class="b" x1="173.73" y1="181.61" x2="173.73" y2="181.61"/><line class="b" x1="156.35" y1="151.51" x2="173.73" y2="181.61"/><line class="b" x1="86.83" y1="31.1" x2="94.18" y2="43.82"/><line class="b" x1="121.59" y1="91.3" x2="104.21" y2="61.2"/><line class="b" x1="86.83" y1="31.1" x2="86.83" y2="31.1"/><line class="b" x1="104.21" y1="61.2" x2="104.21" y2="61.2"/><line class="b" x1="104.21" y1="61.2" x2="104.21" y2="61.2"/><line class="b" x1="104.21" y1="61.2" x2="104.21" y2="61.2"/><line class="b" x1="94.18" y1="43.82" x2="104.21" y2="61.2"/><line class="b" x1="173.73" y1="61.2" x2="156.35" y2="91.3"/><line class="b" x1="173.73" y1="61.2" x2="173.73" y2="61.2"/><line class="b" x1="173.73" y1="61.2" x2="185.32" y2="41.13"/><line class="b" x1="173.73" y1="61.2" x2="173.73" y2="61.2"/><line class="b" x1="173.73" y1="61.2" x2="173.73" y2="61.2"/><line class="b" x1="191.11" y1="31.1" x2="185.32" y2="41.13"/><line class="b" x1="86.83" y1="211.71" x2="90.18" y2="205.92"/><line class="b" x1="104.21" y1="181.61" x2="104.21" y2="181.61"/><line class="b" x1="104.21" y1="181.61" x2="90.18" y2="205.92"/><line class="b" x1="86.83" y1="211.71" x2="86.83" y2="211.71"/><line class="b" x1="86.83" y1="211.71" x2="86.83" y2="211.71"/><line class="b" x1="121.59" y1="151.51" x2="104.21" y2="181.61"/><line class="b" x1="104.21" y1="181.61" x2="104.21" y2="181.61"/><line class="b" x1="69.45" y1="61.2" x2="34.69" y2="61.2"/><line class="b" x1="173.73" y1="61.2" x2="138.97" y2="61.2"/><line class="b" x1="208.49" y1="61.2" x2="173.73" y2="61.2"/><line class="b" x1="173.73" y1="61.2" x2="173.73" y2="61.2"/><line class="b" x1="104.21" y1="61.2" x2="104.21" y2="61.2"/><line class="b" x1="173.73" y1="61.2" x2="173.73" y2="61.2"/><line class="b" x1="104.21" y1="61.2" x2="104.21" y2="61.2"/><line class="b" x1="243.25" y1="61.2" x2="208.49" y2="61.2"/><line class="b" x1="69.45" y1="61.2" x2="104.21" y2="61.2"/><line class="b" x1="243.25" y1="61.2" x2="243.25" y2="61.2"/><line class="b" x1="243.25" y1="61.2" x2="243.25" y2="61.2"/><line class="b" x1="138.97" y1="61.2" x2="104.21" y2="61.2"/><line class="b" x1="104.21" y1="61.2" x2="104.21" y2="61.2"/><line class="b" x1="34.69" y1="61.2" x2="34.69" y2="61.2"/><line class="b" x1="243.25" y1="181.61" x2="243.25" y2="181.61"/><line class="b" x1="34.69" y1="181.61" x2="34.69" y2="121.41"/><line class="b" x1="34.69" y1="121.41" x2="34.69" y2="61.2"/><line class="b" x1="243.25" y1="121.41" x2="243.25" y2="121.41"/><line class="b" x1="243.25" y1="61.2" x2="243.25" y2="121.41"/><line class="b" x1="243.25" y1="181.61" x2="243.25" y2="121.41"/><line class="b" x1="243.25" y1="61.2" x2="243.25" y2="61.2"/><line class="b" x1="191.11" y1="91.3" x2="173.73" y2="61.2"/><line class="b" x1="173.73" y1="61.2" x2="173.73" y2="61.2"/><line class="b" x1="162.91" y1="42.46" x2="173.73" y2="61.2"/><line class="b" x1="52.07" y1="151.51" x2="69.45" y2="121.41"/><line class="b" x1="69.45" y1="121.41" x2="69.45" y2="121.41"/><line class="b" x1="138.97" y1="0.99" x2="121.59" y2="31.1"/><line class="b" x1="69.45" y1="121.41" x2="69.45" y2="121.41"/><line class="b" x1="104.21" y1="61.2" x2="104.21" y2="61.2"/><line class="b" x1="69.45" y1="121.41" x2="69.45" y2="121.41"/><line class="b" x1="138.97" y1="0.99" x2="162.91" y2="42.46"/><line class="b" x1="173.73" y1="61.2" x2="173.73" y2="61.2"/><line class="b" x1="173.73" y1="61.2" x2="173.73" y2="61.2"/><line class="b" x1="104.21" y1="61.2" x2="104.21" y2="61.2"/><line class="b" x1="69.45" y1="121.41" x2="69.45" y2="121.41"/><line class="b" x1="121.59" y1="31.1" x2="117.76" y2="37.74"/><line class="b" x1="208.49" y1="121.41" x2="243.25" y2="181.61"/><line class="b" x1="34.69" y1="181.61" x2="52.07" y2="151.51"/><line class="b" x1="69.45" y1="121.41" x2="86.83" y2="91.3"/><line class="b" x1="243.25" y1="181.61" x2="243.25" y2="181.61"/><line class="b" x1="86.83" y1="91.3" x2="104.21" y2="61.2"/><line class="b" x1="104.21" y1="61.2" x2="117.76" y2="37.74"/><line class="b" x1="208.49" y1="121.41" x2="208.49" y2="121.41"/><line class="b" x1="208.49" y1="121.41" x2="191.11" y2="91.3"/><line class="b" x1="173.73" y1="181.61" x2="173.73" y2="181.61"/><line class="b" x1="243.25" y1="181.61" x2="208.49" y2="181.61"/><line class="b" x1="104.21" y1="181.61" x2="81.04" y2="181.61"/><line class="b" x1="173.73" y1="181.61" x2="173.73" y2="181.61"/><line class="b" x1="173.73" y1="181.61" x2="173.73" y2="181.61"/><line class="b" x1="34.69" y1="181.61" x2="69.45" y2="181.61"/><line class="b" x1="69.45" y1="181.61" x2="81.04" y2="181.61"/><line class="b" x1="138.97" y1="181.61" x2="173.73" y2="181.61"/><line class="b" x1="173.73" y1="181.61" x2="173.73" y2="181.61"/><line class="b" x1="138.97" y1="181.61" x2="104.21" y2="181.61"/><line class="b" x1="208.49" y1="181.61" x2="173.73" y2="181.61"/><line class="b" x1="104.21" y1="181.61" x2="104.21" y2="181.61"/><line class="b" x1="104.21" y1="181.61" x2="104.21" y2="181.61"/><line class="b" x1="104.21" y1="181.61" x2="104.21" y2="181.61"/><line class="b" x1="104.21" y1="181.61" x2="104.21" y2="181.61"/><line class="b" x1="104.21" y1="181.61" x2="104.21" y2="181.61"/><line class="b" x1="104.21" y1="181.61" x2="121.59" y2="211.71"/><line class="b" x1="104.21" y1="181.61" x2="104.21" y2="181.61"/><line class="b" x1="104.21" y1="61.2" x2="104.21" y2="61.2"/><line class="b" x1="173.73" y1="181.61" x2="173.73" y2="181.61"/><line class="b" x1="243.25" y1="61.2" x2="243.25" y2="61.2"/><line class="b" x1="34.69" y1="61.2" x2="34.69" y2="61.2"/><line class="b" x1="138.97" y1="61.2" x2="104.21" y2="61.2"/><line class="b" x1="243.25" y1="61.2" x2="243.25" y2="61.2"/><line class="b" x1="243.25" y1="61.2" x2="208.49" y2="61.2"/><line class="b" x1="69.45" y1="121.41" x2="69.45" y2="121.41"/><line class="b" x1="69.45" y1="121.41" x2="69.45" y2="121.41"/><line class="b" x1="153.81" y1="216.12" x2="173.73" y2="181.61"/><line class="b" x1="34.69" y1="61.2" x2="52.07" y2="91.3"/><polyline class="b" points="34.69 61.2 34.69 61.2 34.69 61.2"/><line class="b" x1="104.21" y1="181.61" x2="104.21" y2="181.61"/><line class="b" x1="124.14" y1="216.12" x2="121.59" y2="211.71"/><line class="b" x1="69.45" y1="121.41" x2="54.55" y2="95.6"/><line class="b" x1="222.16" y1="97.74" x2="243.25" y2="61.2"/><line class="b" x1="34.69" y1="61.2" x2="69.45" y2="61.2"/><line class="b" x1="34.69" y1="61.2" x2="34.69" y2="61.2"/><line class="b" x1="52.07" y1="91.3" x2="54.55" y2="95.6"/><line class="b" x1="69.45" y1="121.41" x2="86.83" y2="151.51"/><line class="b" x1="208.49" y1="121.41" x2="191.11" y2="151.51"/><line class="b" x1="104.21" y1="61.2" x2="104.21" y2="61.2"/><line class="b" x1="104.21" y1="61.2" x2="104.21" y2="61.2"/><polyline class="b" points="243.25 61.2 243.25 61.2 243.25 61.2"/><line class="b" x1="69.45" y1="61.2" x2="104.21" y2="61.2"/><line class="b" x1="191.11" y1="151.51" x2="173.73" y2="181.61"/><line class="b" x1="138.97" y1="61.2" x2="173.73" y2="61.2"/><line class="b" x1="173.73" y1="61.2" x2="173.73" y2="61.2"/><line class="b" x1="208.49" y1="61.2" x2="196.91" y2="61.2"/><line class="b" x1="104.21" y1="61.2" x2="104.21" y2="61.2"/><line class="b" x1="173.73" y1="61.2" x2="196.91" y2="61.2"/><line class="b" x1="86.83" y1="151.51" x2="104.21" y2="181.61"/><line class="b" x1="208.49" y1="121.41" x2="222.16" y2="97.74"/><line class="b" x1="208.49" y1="121.41" x2="208.49" y2="121.41"/><line class="b" x1="243.25" y1="61.2" x2="243.25" y2="61.2"/><line class="b" x1="243.25" y1="61.2" x2="243.25" y2="61.2"/><line class="b" x1="173.73" y1="61.2" x2="173.73" y2="61.2"/><line class="b" x1="208.49" y1="121.41" x2="208.49" y2="121.41"/><line class="b" x1="69.45" y1="121.41" x2="69.45" y2="121.41"/><line class="b" x1="173.73" y1="61.2" x2="173.73" y2="61.2"/><line class="b" x1="173.73" y1="61.2" x2="173.73" y2="61.2"/><line class="b" x1="191.11" y1="31.1" x2="191.11" y2="31.1"/><line class="b" x1="191.11" y1="31.1" x2="191.11" y2="31.1"/><line class="b" x1="173.73" y1="61.2" x2="173.73" y2="61.2"/><line class="b" x1="173.73" y1="61.2" x2="173.73" y2="61.2"/><line class="b" x1="191.11" y1="31.1" x2="185.32" y2="41.13"/><line class="b" x1="185.32" y1="41.13" x2="173.73" y2="61.2"/><polyline class="b" points="191.11 31.1 156.35 31.1 162.91 42.46"/><line class="b" x1="173.73" y1="61.2" x2="173.73" y2="61.2"/><polyline class="b" points="191.11 31.1 191.11 31.1 191.11 31.1"/><line class="b" x1="191.11" y1="31.1" x2="191.11" y2="31.1"/><line class="b" x1="162.91" y1="42.46" x2="173.73" y2="61.2"/><line class="b" x1="104.21" y1="61.2" x2="104.21" y2="61.2"/><line class="b" x1="86.83" y1="31.1" x2="86.83" y2="31.1"/><polyline class="b" points="121.59 31.1 121.59 31.1 117.76 37.74"/><line class="b" x1="104.21" y1="61.2" x2="104.21" y2="61.2"/><line class="b" x1="86.83" y1="31.1" x2="104.21" y2="61.2"/><line class="b" x1="86.83" y1="31.1" x2="86.83" y2="31.1"/><line class="b" x1="121.59" y1="31.1" x2="86.83" y2="31.1"/><line class="b" x1="117.76" y1="37.74" x2="104.21" y2="61.2"/><line class="b" x1="86.83" y1="31.1" x2="86.83" y2="31.1"/><line class="b" x1="104.21" y1="61.2" x2="104.21" y2="61.2"/><line class="b" x1="104.21" y1="61.2" x2="104.21" y2="61.2"/><polyline class="b" points="104.21 181.61 104.21 181.61 104.21 181.61"/><line class="b" x1="104.21" y1="181.61" x2="104.21" y2="181.61"/><line class="b" x1="104.21" y1="181.61" x2="104.21" y2="181.61"/><polyline class="b" points="86.83 211.71 86.83 211.71 86.83 211.71"/><line class="b" x1="86.83" y1="211.71" x2="86.83" y2="211.71"/><line class="b" x1="86.83" y1="211.71" x2="121.59" y2="211.71"/><line class="b" x1="86.83" y1="211.71" x2="90.18" y2="205.92"/><line class="b" x1="86.83" y1="211.71" x2="86.83" y2="211.71"/><polyline class="b" points="121.59 211.71 121.59 211.71 104.21 181.61"/><line class="b" x1="90.18" y1="205.92" x2="104.21" y2="181.61"/><line class="b" x1="173.73" y1="181.61" x2="191.11" y2="211.71"/><polyline class="b" points="173.73 181.61 156.35 211.71 191.11 211.71"/><line class="b" x1="191.11" y1="211.71" x2="191.11" y2="211.71"/><line class="b" x1="173.73" y1="181.61" x2="173.73" y2="181.61"/><line class="b" x1="173.73" y1="181.61" x2="173.73" y2="181.61"/><line class="b" x1="191.11" y1="211.71" x2="191.11" y2="211.71"/><line class="b" x1="191.11" y1="211.71" x2="191.11" y2="211.71"/><polyline class="b" points="173.73 181.61 173.73 181.61 173.73 181.61"/><line class="b" x1="191.11" y1="211.71" x2="191.11" y2="211.71"/><polyline class="b" points="34.69 121.41 34.69 121.41 34.69 121.41"/><line class="b" x1="69.45" y1="121.41" x2="69.45" y2="121.41"/><polyline class="b" points="69.45 121.41 52.07 151.51 52.07 151.51"/><polyline class="b" points="69.45 121.41 69.45 121.41 69.45 121.41"/><line class="b" x1="52.07" y1="151.51" x2="34.69" y2="121.41"/><line class="b" x1="34.69" y1="121.41" x2="34.69" y2="121.41"/><line class="b" x1="34.69" y1="121.41" x2="34.69" y2="121.41"/><line class="b" x1="57.87" y1="121.41" x2="69.45" y2="121.41"/><line class="b" x1="69.45" y1="121.41" x2="69.45" y2="121.41"/><line class="b" x1="57.87" y1="121.41" x2="34.69" y2="121.41"/><polyline class="b" points="104.21 181.61 104.21 181.61 104.21 181.61"/><polyline class="b" points="69.45 181.61 69.45 181.61 81.04 181.61"/><line class="b" x1="86.83" y1="211.71" x2="86.83" y2="211.71"/><line class="b" x1="81.04" y1="181.61" x2="104.21" y2="181.61"/><line class="b" x1="104.21" y1="181.61" x2="104.21" y2="181.61"/><line class="b" x1="104.21" y1="181.61" x2="104.21" y2="181.61"/><line class="b" x1="86.83" y1="211.71" x2="104.21" y2="181.61"/><polyline class="b" points="86.83 211.71 86.83 211.71 86.83 211.71"/><line class="b" x1="69.45" y1="181.61" x2="86.83" y2="211.71"/><line class="b" x1="86.83" y1="211.71" x2="86.83" y2="211.71"/><line class="b" x1="243.25" y1="121.41" x2="243.25" y2="121.41"/><polyline class="b" points="222.16 97.74 225.87 91.3 243.25 121.41"/><line class="b" x1="208.49" y1="121.41" x2="208.49" y2="121.41"/><line class="b" x1="208.49" y1="121.41" x2="243.25" y2="121.41"/><line class="b" x1="243.25" y1="121.41" x2="243.25" y2="121.41"/><line class="b" x1="243.25" y1="121.41" x2="243.25" y2="121.41"/><polyline class="b" points="208.49 121.41 208.49 121.41 222.16 97.74"/><polyline class="b" points="191.11 31.1 191.11 31.1 191.11 31.1"/><line class="b" x1="191.11" y1="31.1" x2="191.11" y2="31.1"/><line class="b" x1="191.11" y1="31.1" x2="191.11" y2="31.1"/><line class="b" x1="208.49" y1="61.2" x2="208.49" y2="61.2"/><line class="b" x1="191.11" y1="31.1" x2="191.11" y2="31.1"/><line class="b" x1="208.49" y1="61.2" x2="191.11" y2="31.1"/><polyline class="b" points="191.11 31.1 173.73 61.2 173.73 61.2"/><line class="b" x1="208.49" y1="61.2" x2="196.91" y2="61.2"/><line class="b" x1="173.73" y1="61.2" x2="173.73" y2="61.2"/><line class="b" x1="196.91" y1="61.2" x2="173.73" y2="61.2"/><line class="b" x1="173.73" y1="181.61" x2="173.73" y2="181.61"/><line class="b" x1="173.73" y1="181.61" x2="191.11" y2="211.71"/><line class="b" x1="191.11" y1="211.71" x2="191.11" y2="211.71"/><polyline class="b" points="208.49 181.61 208.49 181.61 173.73 181.61 173.73 181.61"/><line class="b" x1="191.11" y1="211.71" x2="191.11" y2="211.71"/><line class="b" x1="191.11" y1="211.71" x2="191.11" y2="211.71"/><line class="b" x1="191.11" y1="211.71" x2="191.11" y2="211.71"/><line class="b" x1="191.11" y1="211.71" x2="191.11" y2="211.71"/><line class="b" x1="191.11" y1="211.71" x2="191.11" y2="211.71"/><line class="b" x1="191.11" y1="211.71" x2="191.11" y2="211.71"/><line class="b" x1="208.49" y1="181.61" x2="191.11" y2="211.71"/><line class="b" x1="191.11" y1="211.71" x2="191.11" y2="211.71"/><line class="b" x1="243.25" y1="121.41" x2="243.25" y2="121.41"/><line class="b" x1="243.25" y1="121.41" x2="243.25" y2="121.41"/><polyline class="b" points="208.49 121.41 225.87 151.51 243.25 121.41"/><line class="b" x1="243.25" y1="121.41" x2="243.25" y2="121.41"/><line class="b" x1="208.49" y1="121.41" x2="208.49" y2="121.41"/><line class="b" x1="243.25" y1="121.41" x2="243.25" y2="121.41"/><polyline class="b" points="208.49 121.41 208.49 121.41 243.25 121.41"/><line class="b" x1="69.45" y1="61.2" x2="69.45" y2="61.2"/><line class="b" x1="104.21" y1="61.2" x2="104.21" y2="61.2"/><polyline class="b" points="69.45 61.2 104.21 61.2 104.21 61.2"/><line class="b" x1="104.21" y1="61.2" x2="104.21" y2="61.2"/><line class="b" x1="86.83" y1="31.1" x2="86.83" y2="31.1"/><line class="b" x1="86.83" y1="31.1" x2="86.83" y2="31.1"/><polyline class="b" points="86.83 31.1 86.83 31.1 86.83 31.1"/><line class="b" x1="94.18" y1="43.82" x2="104.21" y2="61.2"/><line class="b" x1="86.83" y1="31.1" x2="69.45" y2="61.2"/><line class="b" x1="86.83" y1="31.1" x2="86.83" y2="31.1"/><line class="b" x1="94.18" y1="43.82" x2="86.83" y2="31.1"/><line class="b" x1="86.83" y1="31.1" x2="86.83" y2="31.1"/><line class="b" x1="34.69" y1="121.41" x2="34.69" y2="121.41"/><polyline class="b" points="54.55 95.6 52.07 91.3 52.07 91.3"/><line class="b" x1="34.69" y1="121.41" x2="34.69" y2="121.41"/><line class="b" x1="69.45" y1="121.41" x2="54.55" y2="95.6"/><line class="b" x1="69.45" y1="121.41" x2="69.45" y2="121.41"/><line class="b" x1="69.45" y1="121.41" x2="0.57" y2="121.41"/><line class="b" x1="69.45" y1="121.41" x2="69.45" y2="121.41"/><line class="b" x1="34.69" y1="121.41" x2="52.07" y2="91.3"/><polyline class="b" points="69.45 121.41 69.45 121.41 69.45 121.41"/><line class="b" x1="34.69" y1="121.41" x2="34.69" y2="121.41"/><line class="b" x1="34.69" y1="61.2" x2="23.94" y2="42.58"/><line class="b" x1="86.83" y1="31.1" x2="69.45" y2="0.99"/><line class="b" x1="86.83" y1="31.1" x2="86.83" y2="31.1"/><line class="b" x1="86.83" y1="31.1" x2="86.83" y2="31.1"/><line class="b" x1="69.45" y1="0.99" x2="86.83" y2="31.1"/><line class="b" x1="86.83" y1="31.1" x2="138.97" y2="0.99"/><line class="b" x1="86.83" y1="31.1" x2="86.83" y2="31.1"/><line class="b" x1="69.45" y1="0.99" x2="76.55" y2="13.29"/><polyline class="b" points="86.83 31.1 86.83 31.1 76.55 13.29"/><line class="b" x1="86.83" y1="31.1" x2="86.83" y2="31.1"/><line class="b" x1="34.69" y1="61.2" x2="86.83" y2="31.1"/><line class="b" x1="86.83" y1="31.1" x2="76.55" y2="13.29"/><line class="b" x1="0.57" y1="80.9" x2="86.83" y2="31.1"/><line class="b" x1="76.55" y1="13.29" x2="69.45" y2="0.99"/><line class="b" x1="86.83" y1="31.1" x2="86.83" y2="31.1"/><circle class="c" cx="69.45" cy="181.61" r="6.6"/><path class="d" d="M69.45,176.2A5.41,5.41,0,1,1,64,181.61a5.41,5.41,0,0,1,5.41-5.41m0-2.37a7.78,7.78,0,1,0,7.78,7.78,7.79,7.79,0,0,0-7.78-7.78Z"/><circle class="c" cx="52.07" cy="151.51" r="6.6"/><path class="d" d="M52.07,146.1a5.41,5.41,0,1,1-5.41,5.41,5.41,5.41,0,0,1,5.41-5.41m0-2.37a7.78,7.78,0,1,0,7.78,7.78,7.79,7.79,0,0,0-7.78-7.78Z"/><circle class="c" cx="51.81" cy="92.37" r="6.6"/><path class="d" d="M51.81,87a5.41,5.41,0,1,1-5.41,5.41A5.41,5.41,0,0,1,51.81,87m0-2.37a7.78,7.78,0,1,0,7.78,7.78,7.79,7.79,0,0,0-7.78-7.78Z"/><circle class="c" cx="121.59" cy="211.71" r="6.6"/><path class="d" d="M121.59,206.3a5.41,5.41,0,1,1-5.41,5.41,5.41,5.41,0,0,1,5.41-5.41m0-2.37a7.78,7.78,0,1,0,7.78,7.78,7.79,7.79,0,0,0-7.78-7.78Z"/><circle class="c" cx="156.35" cy="211.71" r="6.6"/><path class="d" d="M156.35,206.3a5.41,5.41,0,1,1-5.41,5.41,5.41,5.41,0,0,1,5.41-5.41m0-2.37a7.78,7.78,0,1,0,7.78,7.78,7.79,7.79,0,0,0-7.78-7.78Z"/><circle class="c" cx="138.97" cy="181.61" r="6.6"/><path class="d" d="M139,176.2a5.41,5.41,0,1,1-5.41,5.41A5.41,5.41,0,0,1,139,176.2m0-2.37a7.78,7.78,0,1,0,7.78,7.78,7.79,7.79,0,0,0-7.78-7.78Z"/><circle class="c" cx="86.83" cy="90.53" r="6.6"/><path class="d" d="M86.83,85.12a5.41,5.41,0,1,1-5.41,5.41,5.41,5.41,0,0,1,5.41-5.41m0-2.37a7.78,7.78,0,1,0,7.78,7.78,7.79,7.79,0,0,0-7.78-7.78Z"/><circle class="c" cx="105.03" cy="121.41" r="6.6"/><path class="d" d="M105,116a5.41,5.41,0,1,1-5.41,5.41A5.41,5.41,0,0,1,105,116m0-2.37a7.78,7.78,0,1,0,7.78,7.78,7.79,7.79,0,0,0-7.78-7.78Z"/><circle class="c" cx="69.45" cy="61.2" r="6.6"/><path class="d" d="M69.45,55.79A5.41,5.41,0,1,1,64,61.2a5.41,5.41,0,0,1,5.41-5.41m0-2.37a7.78,7.78,0,1,0,7.78,7.78,7.79,7.79,0,0,0-7.78-7.78Z"/><circle class="c" cx="121.59" cy="152.21" r="6.6"/><path class="d" d="M121.59,146.8a5.41,5.41,0,1,1-5.41,5.41,5.41,5.41,0,0,1,5.41-5.41m0-2.37a7.78,7.78,0,1,0,7.78,7.78,7.79,7.79,0,0,0-7.78-7.78Z"/><circle class="c" cx="102.94" cy="181.61" r="6.6"/><path class="d" d="M102.94,176.2a5.41,5.41,0,1,1-5.41,5.41,5.41,5.41,0,0,1,5.41-5.41m0-2.37a7.78,7.78,0,1,0,7.78,7.78,7.79,7.79,0,0,0-7.78-7.78Z"/><circle class="c" cx="86.83" cy="151.51" r="6.6"/><path class="d" d="M86.83,146.1a5.41,5.41,0,1,1-5.41,5.41,5.41,5.41,0,0,1,5.41-5.41m0-2.37a7.78,7.78,0,1,0,7.78,7.78,7.79,7.79,0,0,0-7.78-7.78Z"/><circle class="c" cx="69.45" cy="121.41" r="6.6"/><path class="d" d="M69.45,116A5.41,5.41,0,1,1,64,121.41,5.41,5.41,0,0,1,69.45,116m0-2.37a7.78,7.78,0,1,0,7.78,7.78,7.79,7.79,0,0,0-7.78-7.78Z"/><circle class="e" cx="173.73" cy="61.2" r="7.22"/><line class="b" x1="272.35" y1="44.4" x2="243.25" y2="61.2"/><path class="b" d="M272.35,164.81l-29.1,16.8"/><line class="b" x1="272.35" y1="78" x2="243.25" y2="61.2"/><line class="b" x1="243.25" y1="181.61" x2="272.35" y2="198.41"/><line class="b" x1="272.35" y1="198.41" x2="243.25" y2="181.61"/></svg>